<svg width="212" height="136" viewBox="0 0 212 136" fill="none" xmlns="http://www.w3.org/2000/svg">
<path d="M80.0616 132.411C117.945 132.411 148.655 102.77 148.655 66.2057C148.655 29.6413 117.945 0 80.0616 0C42.1784 0 11.468 29.6413 11.468 66.2057C11.468 102.77 42.1784 132.411 80.0616 132.411Z" fill="#D9EBFF"/>
<path d="M97.7765 112.818H82.4175V127.642H97.7765V112.818Z" fill="#A9C0FF"/>
<path d="M211.512 132.251H0V135.131H211.512V132.251Z" fill="#456BA3"/>
<path d="M82.4176 126.682V113.778C82.4176 113.523 82.3128 113.279 82.1262 113.099C81.9397 112.919 81.6867 112.818 81.4229 112.818H78.6378C78.374 112.818 78.1209 112.919 77.9344 113.099C77.7479 113.279 77.6431 113.523 77.6431 113.778V131.29C77.6431 131.545 77.7479 131.789 77.9344 131.969C78.1209 132.149 78.374 132.251 78.6378 132.251H96.782C97.0458 132.251 97.2988 132.149 97.4854 131.969C97.6719 131.789 97.7767 131.545 97.7767 131.29V128.602C97.7767 128.348 97.6719 128.103 97.4854 127.923C97.2988 127.743 97.0458 127.642 96.782 127.642H83.4123C83.2817 127.642 83.1523 127.617 83.0316 127.569C82.9109 127.521 82.8013 127.45 82.7089 127.361C82.6165 127.272 82.5433 127.166 82.4933 127.05C82.4433 126.933 82.4176 126.808 82.4176 126.682Z" fill="#6299E8"/>
<path d="M92.4844 127.642V132.251H106.849C107.113 132.251 107.366 132.149 107.552 131.969C107.739 131.789 107.843 131.545 107.843 131.29V128.602C107.843 128.348 107.739 128.103 107.552 127.923C107.366 127.743 107.113 127.642 106.849 127.642H92.4844Z" fill="#C2D5FF"/>
<path d="M21.0484 76.379H7.25684V77.0191H21.0484V76.379Z" fill="#A9C0FF"/>
<path d="M20.5469 72.4528H6.75537V73.0928H20.5469V72.4528Z" fill="#A9C0FF"/>
<path d="M21.5253 80.6459H7.73389V81.2859H21.5253V80.6459Z" fill="#A9C0FF"/>
<path d="M126.232 24.7618H112.441V25.4019H126.232V24.7618Z" fill="#A9C0FF"/>
<path d="M125.731 20.8356H111.939V21.4757H125.731V20.8356Z" fill="#A9C0FF"/>
<path d="M126.709 29.0284H112.918V29.6684H126.709V29.0284Z" fill="#A9C0FF"/>
<path d="M126.215 54.2973H41.8644C40.7657 54.2973 39.875 55.157 39.875 56.2175V114.098C39.875 115.158 40.7657 116.018 41.8644 116.018H126.215C127.313 116.018 128.204 115.158 128.204 114.098V56.2175C128.204 55.157 127.313 54.2973 126.215 54.2973Z" fill="#6299E8"/>
<path d="M126.215 116.498H41.8644C41.2051 116.497 40.5731 116.244 40.1069 115.794C39.6407 115.344 39.3784 114.734 39.3777 114.098V56.2176C39.3784 55.5812 39.6407 54.9711 40.1069 54.5212C40.5731 54.0712 41.2051 53.8181 41.8644 53.8174H126.215C126.874 53.8181 127.506 54.0712 127.972 54.5211C128.439 54.9711 128.701 55.5812 128.701 56.2176V114.098C128.701 114.734 128.439 115.344 127.972 115.794C127.506 116.244 126.874 116.497 126.215 116.498ZM41.8644 54.7775C41.4688 54.7779 41.0896 54.9297 40.8099 55.1997C40.5302 55.4697 40.3728 55.8357 40.3724 56.2176V114.098C40.3728 114.48 40.5302 114.846 40.8099 115.116C41.0896 115.386 41.4688 115.538 41.8644 115.538H126.215C126.61 115.538 126.99 115.386 127.269 115.116C127.549 114.846 127.706 114.48 127.707 114.098V56.2176C127.706 55.8357 127.549 55.4697 127.269 55.1997C126.99 54.9297 126.61 54.7779 126.215 54.7775H41.8644Z" fill="#4D76B8"/>
<path d="M131.755 54.2973H47.4042C46.3055 54.2973 45.4148 55.157 45.4148 56.2175V114.098C45.4148 115.158 46.3055 116.018 47.4042 116.018H131.755C132.853 116.018 133.744 115.158 133.744 114.098V56.2175C133.744 55.157 132.853 54.2973 131.755 54.2973Z" fill="white"/>
<path d="M125.073 60.6317H54.0853C52.9866 60.6317 52.0959 61.4914 52.0959 62.5518V107.764C52.0959 108.824 52.9866 109.684 54.0853 109.684H125.073C126.172 109.684 127.063 108.824 127.063 107.764V62.5518C127.063 61.4914 126.172 60.6317 125.073 60.6317Z" fill="#D9EBFF"/>
<path d="M131.755 116.498H47.4042C46.7449 116.497 46.1128 116.244 45.6467 115.794C45.1805 115.344 44.9182 114.734 44.9175 114.098V56.2176C44.9182 55.5812 45.1805 54.9711 45.6467 54.5212C46.1128 54.0712 46.7449 53.8181 47.4042 53.8174H131.755C132.414 53.8181 133.046 54.0712 133.512 54.5211C133.978 54.9711 134.241 55.5812 134.241 56.2176V114.098C134.241 114.734 133.978 115.344 133.512 115.794C133.046 116.244 132.414 116.497 131.755 116.498ZM47.4042 54.7775C47.0086 54.7779 46.6294 54.9297 46.3497 55.1997C46.0699 55.4697 45.9126 55.8357 45.9122 56.2176V114.098C45.9126 114.48 46.0699 114.846 46.3497 115.116C46.6294 115.386 47.0086 115.538 47.4042 115.538H131.755C132.15 115.538 132.529 115.386 132.809 115.116C133.089 114.846 133.246 114.48 133.247 114.098V56.2176C133.246 55.8357 133.089 55.4697 132.809 55.1997C132.529 54.9297 132.15 54.7779 131.755 54.7775H47.4042Z" fill="#4D76B8"/>
<path d="M125.073 60.6317H54.0853C53.5577 60.6317 53.0517 60.834 52.6786 61.1941C52.3055 61.5542 52.0959 62.0426 52.0959 62.5518V67.8392H127.063V62.5518C127.063 62.2997 127.011 62.05 126.911 61.817C126.811 61.5841 126.665 61.3724 126.48 61.1941C126.295 61.0158 126.076 60.8743 125.835 60.7779C125.593 60.6814 125.335 60.6317 125.073 60.6317Z" fill="#A9C0FF"/>
<path d="M52.0959 103.556V107.764C52.0959 108.273 52.3055 108.761 52.6786 109.121C53.0517 109.481 53.5577 109.684 54.0853 109.684H125.073C125.601 109.684 126.107 109.481 126.48 109.121C126.853 108.761 127.063 108.273 127.063 107.764V103.556H52.0959Z" fill="#A9C0FF"/>
<path d="M83.8765 72.0262H57.6165V72.6662H83.8765V72.0262Z" fill="#456BA3"/>
<path d="M83.8765 77.4932H57.6165V78.1332H83.8765V77.4932Z" fill="#456BA3"/>
<path d="M121.648 82.9601H57.6165V83.6002H121.648V82.9601Z" fill="#456BA3"/>
<path d="M121.648 88.4271H57.6165V89.0671H121.648V88.4271Z" fill="#456BA3"/>
<path d="M121.648 93.894H57.6165V94.5341H121.648V93.894Z" fill="#456BA3"/>
<path d="M121.648 99.361H57.6165V100.001H121.648V99.361Z" fill="#456BA3"/>
<g opacity="0.28">
<path d="M143.249 42.2858H95.0343C93.9356 42.2858 93.0449 43.1455 93.0449 44.2059V76.8364C93.0449 77.8968 93.9356 78.7565 95.0343 78.7565H143.249C144.348 78.7565 145.239 77.8968 145.239 76.8364V44.2059C145.239 43.1455 144.348 42.2858 143.249 42.2858Z" fill="#6299E8"/>
</g>
<path d="M148.263 37.5482H100.048C98.949 37.5482 98.0583 38.4078 98.0583 39.4683V72.0987C98.0583 73.1592 98.949 74.0189 100.048 74.0189H148.263C149.361 74.0189 150.252 73.1592 150.252 72.0987V39.4683C150.252 38.4078 149.361 37.5482 148.263 37.5482Z" fill="white"/>
<path d="M150.252 45.5887H98.0583V46.5487H150.252V45.5887Z" fill="#A9C0FF"/>
<path d="M148.263 74.4989H100.048C99.3885 74.4982 98.7564 74.2451 98.2902 73.7951C97.824 73.3451 97.5618 72.735 97.561 72.0987V39.4682C97.5618 38.8319 97.824 38.2218 98.2902 37.7718C98.7564 37.3218 99.3885 37.0687 100.048 37.068H148.263C148.922 37.0687 149.554 37.3218 150.02 37.7718C150.486 38.2218 150.749 38.8319 150.749 39.4682V72.0987C150.749 72.735 150.486 73.3451 150.02 73.7951C149.554 74.2451 148.922 74.4982 148.263 74.4989ZM100.048 38.0281C99.6522 38.0285 99.2729 38.1804 98.9932 38.4504C98.7135 38.7203 98.5562 39.0864 98.5557 39.4682V72.0987C98.5562 72.4805 98.7135 72.8466 98.9932 73.1165C99.2729 73.3865 99.6522 73.5384 100.048 73.5388H148.263C148.658 73.5384 149.037 73.3865 149.317 73.1165C149.597 72.8466 149.754 72.4805 149.755 72.0987V39.4682C149.754 39.0864 149.597 38.7203 149.317 38.4504C149.037 38.1804 148.658 38.0285 148.263 38.0281H100.048Z" fill="#4D76B8"/>
<path d="M119.933 48.7337H104.646C104.28 48.7337 103.983 49.0202 103.983 49.3737V64.1286C103.983 64.482 104.28 64.7686 104.646 64.7686H119.933C120.299 64.7686 120.596 64.482 120.596 64.1286V49.3737C120.596 49.0202 120.299 48.7337 119.933 48.7337Z" fill="#D9EBFF"/>
<path d="M142.351 48.7337H123.625C123.258 48.7337 122.961 49.0202 122.961 49.3737V52.3411C122.961 52.6946 123.258 52.9811 123.625 52.9811H142.351C142.718 52.9811 143.015 52.6946 143.015 52.3411V49.3737C143.015 49.0202 142.718 48.7337 142.351 48.7337Z" fill="#A9C0FF"/>
<path d="M128.045 68.1886H117.877C117.511 68.1886 117.214 68.4752 117.214 68.8287V69.9832C117.214 70.3367 117.511 70.6233 117.877 70.6233H128.045C128.412 70.6233 128.709 70.3367 128.709 69.9832V68.8287C128.709 68.4752 128.412 68.1886 128.045 68.1886Z" fill="#A9C0FF"/>
<path d="M142.351 54.6274H123.625C123.258 54.6274 122.961 54.914 122.961 55.2675V58.2348C122.961 58.5883 123.258 58.8749 123.625 58.8749H142.351C142.718 58.8749 143.015 58.5883 143.015 58.2348V55.2675C143.015 54.914 142.718 54.6274 142.351 54.6274Z" fill="#A9C0FF"/>
<path d="M142.351 60.5211H123.625C123.258 60.5211 122.961 60.8077 122.961 61.1612V64.1285C122.961 64.482 123.258 64.7686 123.625 64.7686H142.351C142.718 64.7686 143.015 64.482 143.015 64.1285V61.1612C143.015 60.8077 142.718 60.5211 142.351 60.5211Z" fill="#A9C0FF"/>
<g opacity="0.28">
<path d="M69.5223 26.1113H21.3075C20.2088 26.1113 19.3181 26.971 19.3181 28.0315V60.6619C19.3181 61.7224 20.2088 62.582 21.3075 62.582H69.5223C70.621 62.582 71.5117 61.7224 71.5117 60.6619V28.0315C71.5117 26.971 70.621 26.1113 69.5223 26.1113Z" fill="#6299E8"/>
</g>
<path d="M61.9881 21.3737H13.7733C12.6746 21.3737 11.7839 22.2334 11.7839 23.2938V55.9243C11.7839 56.9847 12.6746 57.8444 13.7733 57.8444H61.9881C63.0868 57.8444 63.9775 56.9847 63.9775 55.9243V23.2938C63.9775 22.2334 63.0868 21.3737 61.9881 21.3737Z" fill="white"/>
<path d="M63.9775 29.414H11.7839V30.3741H63.9775V29.414Z" fill="#A9C0FF"/>
<path d="M61.9882 58.3243H13.7734C13.1141 58.3236 12.482 58.0705 12.0158 57.6205C11.5496 57.1706 11.2873 56.5605 11.2866 55.9241V23.2939C11.2873 22.6576 11.5496 22.0475 12.0158 21.5975C12.482 21.1476 13.1141 20.8945 13.7734 20.8938H61.9882C62.6475 20.8945 63.2796 21.1476 63.7458 21.5975C64.212 22.0475 64.4742 22.6576 64.4749 23.2939V55.9241C64.4742 56.5605 64.212 57.1706 63.7458 57.6205C63.2796 58.0705 62.6475 58.3236 61.9882 58.3243ZM13.7734 21.8538C13.3778 21.8543 12.9985 22.0061 12.7188 22.2761C12.4391 22.5461 12.2817 22.9121 12.2813 23.2939V55.9241C12.2817 56.3059 12.4391 56.672 12.7188 56.942C12.9985 57.2119 13.3778 57.3638 13.7734 57.3642H61.9882C62.3838 57.3638 62.763 57.2119 63.0427 56.942C63.3225 56.672 63.4798 56.3059 63.4802 55.9241V23.2939C63.4798 22.9121 63.3225 22.5461 63.0427 22.2761C62.763 22.0061 62.3838 21.8543 61.9882 21.8538H13.7734Z" fill="#4D76B8"/>
<path d="M56.1692 33.5193H19.5918C19.2256 33.5193 18.9287 33.8058 18.9287 34.1593V37.1267C18.9287 37.4802 19.2256 37.7667 19.5918 37.7667H56.1692C56.5354 37.7667 56.8323 37.4802 56.8323 37.1267V34.1593C56.8323 33.8058 56.5354 33.5193 56.1692 33.5193Z" fill="#A9C0FF"/>
<path d="M56.1692 39.413H19.5918C19.2256 39.413 18.9287 39.6996 18.9287 40.0531V43.0204C18.9287 43.3739 19.2256 43.6605 19.5918 43.6605H56.1692C56.5354 43.6605 56.8323 43.3739 56.8323 43.0204V40.0531C56.8323 39.6996 56.5354 39.413 56.1692 39.413Z" fill="#A9C0FF"/>
<path d="M56.8325 46.5487H18.929V47.5088H56.8325V46.5487Z" fill="#4D76B8"/>
<path d="M56.8325 49.2136H18.929V50.1737H56.8325V49.2136Z" fill="#4D76B8"/>
<path d="M56.8325 51.8788H18.929V52.8389H56.8325V51.8788Z" fill="#4D76B8"/>
<path d="M140.942 131.877H158.478C157.499 131.877 156.549 131.559 155.78 130.974C155.01 130.389 154.468 129.572 154.238 128.653L148.567 105.943C148.337 105.024 147.795 104.207 147.025 103.622C146.256 103.037 145.306 102.72 144.327 102.72H142.904C142.245 102.72 141.595 102.864 141.002 103.141C140.41 103.418 139.89 103.821 139.481 104.32C139.073 104.819 138.787 105.4 138.645 106.021C138.503 106.642 138.508 107.285 138.661 107.904L143.385 127.066C143.538 127.685 143.543 128.328 143.401 128.949C143.259 129.57 142.973 130.152 142.565 130.65C142.157 131.149 141.637 131.552 141.044 131.829C140.451 132.107 139.801 132.251 139.142 132.251L140.942 131.877Z" fill="#6299E8"/>
<path d="M142.22 102.682H159.756H159.797L165.514 126.725C165.661 127.342 165.662 127.983 165.516 128.6C165.371 129.217 165.083 129.795 164.675 130.29C164.266 130.785 163.748 131.185 163.157 131.459C162.566 131.734 161.919 131.877 161.263 131.877H158.478C157.499 131.877 156.549 131.559 155.78 130.974C155.01 130.389 154.467 129.572 154.238 128.653L148.567 105.943C148.337 105.024 147.795 104.207 147.025 103.622C146.256 103.038 145.306 102.72 144.327 102.72L142.22 102.682Z" fill="#4D76B8"/>
<path d="M133.2 123.989L134.97 129.267C135.242 130.13 135.795 130.886 136.546 131.423C137.297 131.961 138.207 132.251 139.142 132.251C139.801 132.251 140.451 132.107 141.044 131.829C141.637 131.552 142.157 131.149 142.565 130.65C142.973 130.152 143.259 129.57 143.401 128.949C143.543 128.328 143.538 127.685 143.385 127.066L142.627 123.989H133.2Z" fill="#4D76B8"/>
<path d="M161.263 131.877C161.919 131.877 162.566 131.734 163.157 131.459C163.748 131.185 164.266 130.785 164.675 130.29C165.083 129.795 165.371 129.217 165.516 128.6C165.662 127.983 165.661 127.342 165.514 126.725L156.036 86.8628C155.889 86.246 155.888 85.6052 156.034 84.9881C156.179 84.371 156.466 83.7935 156.875 83.2985C157.283 82.8035 157.802 82.4037 158.393 82.129C158.984 81.8542 159.631 81.7115 160.287 81.7115H161.986L185.669 86.8628L195.148 126.725C195.295 127.342 195.296 127.983 195.15 128.6C195.005 129.217 194.717 129.795 194.309 130.29C193.9 130.785 193.381 131.185 192.791 131.459C192.2 131.734 191.553 131.877 190.897 131.877H161.263Z" fill="#6299E8"/>
<path d="M189.92 81.7115H191.619C192.566 81.7115 193.486 82.0084 194.242 82.5574C194.998 83.1065 195.548 83.8779 195.81 84.7553L197.788 91.3773C198.05 92.2547 198.6 93.0261 199.356 93.5751C200.112 94.1241 201.033 94.421 201.979 94.421H172.345C171.399 94.421 170.478 94.1241 169.722 93.5751C168.967 93.0261 168.416 92.2547 168.154 91.3773L166.176 84.7553C165.914 83.8779 165.364 83.1065 164.608 82.5574C163.852 82.0084 162.932 81.7115 161.986 81.7115H189.92Z" fill="#4D76B8"/>
<path d="M172.345 94.421H172.822C173.482 94.421 174.133 94.2766 174.726 93.9987C175.319 93.7208 175.84 93.3166 176.248 92.8165C176.656 92.3164 176.942 91.7335 177.083 91.1116C177.224 90.4897 177.217 89.845 177.062 89.2261L176.344 86.3467H205.978L206.696 89.2261C206.851 89.845 206.858 90.4897 206.716 91.1116C206.575 91.7335 206.29 92.3164 205.882 92.8165C205.474 93.3166 204.953 93.7208 204.36 93.9987C203.766 94.2766 203.115 94.421 202.456 94.421H172.345Z" fill="#92B1EF"/>
<path d="M183.823 100.894H163.045V101.854H183.823V100.894Z" fill="#4D76B8"/>
<path d="M185.248 105.691H164.471V106.651H185.248V105.691Z" fill="#4D76B8"/>
<path d="M186.707 110.531H165.929V111.491H186.707V110.531Z" fill="#4D76B8"/>
<path d="M188.165 115.371H167.387V116.331H188.165V115.371Z" fill="#4D76B8"/>
<path d="M189.623 120.211H168.845V121.171H189.623V120.211Z" fill="#4D76B8"/>
<path d="M191.082 125.051H170.304V126.011H191.082V125.051Z" fill="#4D76B8"/>
<path d="M153.78 109.806H143.524V110.766H153.78V109.806Z" fill="#4D76B8"/>
<path d="M154.484 114.602H144.228V115.562H154.484V114.602Z" fill="#4D76B8"/>
<path d="M155.203 119.443H144.948V120.403H155.203V119.443Z" fill="#4D76B8"/>
<path d="M155.923 124.283H145.668V125.243H155.923V124.283Z" fill="#4D76B8"/>
<path d="M14.6576 98.9638C14.8771 100.332 15.0063 101.7 15.1034 103.067C15.1607 103.751 15.1846 104.434 15.2248 105.117L15.295 107.167C15.3249 108.533 15.3041 109.899 15.2325 111.264C15.1529 112.629 15.0823 113.994 15.0207 115.359L14.6635 123.55C14.5157 126.28 14.3919 129.01 14.2234 131.74L14.0576 131.738C13.9613 129.005 13.91 126.272 13.8346 123.54L13.6945 115.343C13.6671 113.976 13.6327 112.61 13.5913 111.244C13.5566 109.877 13.5719 108.512 13.6373 107.147L13.7618 105.099C13.8201 104.417 13.862 103.735 13.9375 103.053C14.0709 101.688 14.2362 100.324 14.4919 98.9617L14.6576 98.9638Z" fill="#A9C0FF"/>
<path d="M22.36 99.2404C22.4891 99.5746 22.5977 99.91 22.7173 100.245L23.0411 101.251C23.2546 101.922 23.4488 102.595 23.6338 103.267C23.7044 104.632 23.8092 105.994 23.8952 107.357L24.4379 115.535L24.9805 123.713L25.2518 127.802C25.0404 129.183 24.8384 130.565 24.5305 131.952C24.0417 130.614 23.6589 129.269 23.2665 127.925L22.9952 123.836L22.4526 115.658L21.91 107.48C21.8151 106.117 21.7389 104.753 21.6287 103.391C21.7233 102.701 21.8271 102.011 21.9501 101.319L22.1382 100.281C22.2126 99.9338 22.276 99.5878 22.36 99.2404Z" fill="#4D76B8"/>
<path d="M25.7743 94.796L21.8252 117.03L27.2853 117.933L31.2344 95.6995L25.7743 94.796Z" fill="#A9C0FF"/>
<path d="M15.3843 95.2598C15.5253 95.5895 15.6458 95.921 15.7774 96.2516L16.1371 97.2466C16.3745 97.9102 16.5928 98.5755 16.8018 99.2418C16.9212 100.603 17.0748 101.961 17.2097 103.32L18.0452 111.475L18.8807 119.63L19.2985 123.708C19.1368 125.095 18.9844 126.482 18.7264 127.879C18.19 126.558 17.759 125.227 17.3188 123.897L16.901 119.819L16.0654 111.664L15.2299 103.509C15.0862 102.15 14.9613 100.79 14.8022 99.4327C14.872 98.7399 14.951 98.0461 15.0492 97.3505L15.1999 96.3067C15.2619 95.9577 15.3128 95.6098 15.3843 95.2598Z" fill="#6299E8"/>
<path d="M20.6319 91.1567C20.7341 91.4994 20.8157 91.8419 20.9084 92.1845L21.1514 93.212C21.3109 93.8969 21.4512 94.5815 21.5823 95.2661C21.5443 96.6315 21.5405 97.9974 21.518 99.363L21.4094 107.557L21.3009 115.751L21.2466 119.848C20.926 121.21 20.6148 122.572 20.1976 123.933C19.8167 122.562 19.5417 121.193 19.2573 119.824L19.3116 115.726L19.4202 107.532L19.5287 99.3384C19.5424 97.9727 19.5749 96.6072 19.5731 95.2413C19.7222 94.5602 19.8805 93.8792 20.0582 93.1984L20.3283 92.1774C20.43 91.8372 20.5207 91.4968 20.6319 91.1567Z" fill="#6299E8"/>
<path d="M18.16 99.2415C18.3795 100.61 18.5086 101.978 18.6059 103.345C18.6632 104.028 18.687 104.712 18.7272 105.395L18.7974 107.445C18.8274 108.811 18.8065 110.177 18.7348 111.542C18.6553 112.907 18.5847 114.272 18.5231 115.637L18.1658 123.828C18.018 126.558 17.8943 129.288 17.7257 132.018L17.5599 132.015C17.4638 129.283 17.4124 126.55 17.337 123.817L17.1969 115.62C17.1695 114.254 17.1351 112.888 17.0938 111.521C17.059 110.155 17.0744 108.789 17.1397 107.424L17.2642 105.377C17.3225 104.695 17.3644 104.012 17.4399 103.33C17.5732 101.966 17.7386 100.602 17.9942 99.2394L18.16 99.2415Z" fill="#A9C0FF"/>
<path d="M31.9365 98.9628C31.9615 99.3187 31.9662 99.67 31.9819 100.024L31.9947 101.078C32.0008 101.78 31.9882 102.477 31.9665 103.173C31.6308 104.5 31.3284 105.834 31.0076 107.165L29.1093 115.152L27.211 123.139L26.2619 127.133C25.6506 128.399 25.0486 129.667 24.3432 130.912C24.2706 129.494 24.3013 128.1 24.3228 126.703L25.272 122.71L27.1703 114.723L29.0686 106.735C29.3807 105.403 29.7111 104.075 30.0081 102.74C30.3028 102.104 30.6065 101.471 30.9291 100.842L31.4164 99.8985C31.5902 99.5867 31.7533 99.2726 31.9365 98.9628Z" fill="#6299E8"/>
<path d="M30.6591 132.251H14.4411C14.2733 132.251 14.1118 132.189 13.9891 132.079C13.8663 131.968 13.7915 131.817 13.7796 131.656L11.8842 109.043C11.8778 108.955 11.8901 108.867 11.9205 108.784C11.9508 108.702 11.9984 108.626 12.0605 108.561C12.1226 108.497 12.1977 108.446 12.2811 108.411C12.3646 108.376 12.4547 108.358 12.5457 108.358H32.5545C32.6456 108.358 32.7356 108.376 32.8191 108.411C32.9026 108.446 32.9777 108.497 33.0397 108.561C33.1018 108.626 33.1495 108.702 33.1798 108.784C33.2101 108.867 33.2224 108.955 33.216 109.043L31.3206 131.656C31.3087 131.817 31.2339 131.968 31.1112 132.079C30.9884 132.189 30.8269 132.251 30.6591 132.251Z" fill="#92B1EF"/>
<path d="M32.7828 114.937L33.0932 110.713H12.0066L12.3169 114.937H32.7828Z" fill="#A9C0FF"/>
<path d="M185.206 45.4357H166.188C166.057 45.4357 165.928 45.4605 165.807 45.5088C165.686 45.557 165.577 45.6277 165.484 45.7169C165.392 45.806 165.319 45.9119 165.269 46.0283C165.219 46.1448 165.193 46.2697 165.193 46.3958V64.7522C165.193 64.8783 165.219 65.0032 165.269 65.1197C165.319 65.2361 165.392 65.342 165.484 65.4311C165.577 65.5203 165.686 65.591 165.807 65.6392C165.928 65.6875 166.057 65.7123 166.188 65.7123H178.437L179.977 67.925C180.008 67.9686 180.049 68.0043 180.097 68.029C180.145 68.0537 180.198 68.0666 180.253 68.0666C180.307 68.0666 180.36 68.0537 180.408 68.029C180.456 68.0043 180.497 67.9686 180.528 67.925L182.068 65.7123H185.206C185.47 65.7123 185.723 65.6112 185.91 65.4311C186.096 65.2511 186.201 65.0069 186.201 64.7522V46.3958C186.201 46.1411 186.096 45.8969 185.91 45.7169C185.723 45.5368 185.47 45.4357 185.206 45.4357Z" fill="white"/>
<path d="M179.1 51.8288L170.284 54.4658C170.121 54.5075 169.976 54.599 169.871 54.7266C169.766 54.8543 169.706 55.0113 169.701 55.1742C169.696 55.3372 169.745 55.4974 169.842 55.631C169.939 55.7646 170.078 55.8645 170.238 55.9158L174.237 57.2087C174.252 57.2142 174.265 57.2224 174.276 57.233C174.288 57.2436 174.297 57.2563 174.303 57.2704L175.774 60.9557C175.834 61.1036 175.94 61.2302 176.076 61.3186C176.213 61.407 176.374 61.4529 176.539 61.4502H176.559C176.727 61.4501 176.89 61.3989 177.025 61.3039C177.161 61.209 177.261 61.0751 177.313 60.9215L180.117 52.7933C180.161 52.6633 180.168 52.5242 180.136 52.3909C180.104 52.2576 180.035 52.1352 179.937 52.0368C179.832 51.9299 179.697 51.8537 179.549 51.8169C179.402 51.7801 179.246 51.7842 179.1 51.8288Z" fill="#A9C0FF"/>
<path d="M180.252 68.5466C180.116 68.5467 179.982 68.5145 179.862 68.4528C179.742 68.391 179.64 68.3018 179.564 68.1928L178.172 66.1923H166.187C165.792 66.1919 165.413 66.0401 165.133 65.7701C164.853 65.5001 164.696 65.134 164.695 64.7522V46.3956C164.696 46.0138 164.853 45.6477 165.133 45.3777C165.413 45.1078 165.792 44.9559 166.187 44.9555H185.206C185.602 44.9559 185.981 45.1078 186.26 45.3777C186.54 45.6477 186.698 46.0138 186.698 46.3956V64.7522C186.698 65.134 186.54 65.5001 186.26 65.7701C185.981 66.0401 185.602 66.1919 185.206 66.1923H182.333L180.94 68.1928C180.865 68.3017 180.762 68.391 180.642 68.4527C180.522 68.5144 180.389 68.5466 180.253 68.5466L180.252 68.5466ZM166.187 45.9156C166.055 45.9157 165.929 45.9663 165.836 46.0563C165.743 46.1463 165.69 46.2683 165.69 46.3956V64.7522C165.69 64.8795 165.743 65.0015 165.836 65.0915C165.929 65.1815 166.055 65.2321 166.187 65.2323H178.702L180.252 67.4596L181.803 65.2323H185.206C185.338 65.2321 185.464 65.1815 185.557 65.0915C185.651 65.0015 185.703 64.8795 185.703 64.7522V46.3956C185.703 46.2683 185.651 46.1463 185.557 46.0563C185.464 45.9663 185.338 45.9157 185.206 45.9156H166.187Z" fill="#4D76B8"/>
</svg>
