<svg width="62" height="61" viewBox="0 0 62 61" fill="none" xmlns="http://www.w3.org/2000/svg">
<g clip-path="url(#clip0_147_539)">
<mask id="mask0_147_539" style="mask-type:luminance" maskUnits="userSpaceOnUse" x="0" y="0" width="62" height="61">
<path d="M0 1.66893e-06H62V61H0V1.66893e-06Z" fill="white"/>
</mask>
<g mask="url(#mask0_147_539)">
<path d="M58.7369 32.1052C58.7369 28.7936 58.1381 25.6216 57.0401 22.6856C56.2895 31.3363 51.602 35.7797 46.704 33.7105C42.1144 31.7713 45.2078 24.2122 45.4363 20.6051C45.8213 14.4907 45.4167 7.49174 34.1278 1.67266C38.8186 10.5016 34.6711 15.9852 30.3197 16.3207C25.4935 16.6899 21.0752 12.2401 22.7067 5.01642C17.4237 8.84658 17.2687 15.2933 18.8986 19.4638C20.5987 23.8108 18.8317 27.4227 14.6843 27.824C10.0522 28.2735 7.47758 22.9424 9.85153 14.4473C5.58987 19.3745 3.25385 25.6355 3.26321 32.1052C3.26321 47.1771 15.6812 59.3947 31.0001 59.3947C46.319 59.3947 58.7369 47.1771 58.7369 32.1052Z" fill="#F4900C"/>
</g>
<mask id="mask1_147_539" style="mask-type:luminance" maskUnits="userSpaceOnUse" x="3" y="1" width="56" height="59">
<path d="M30.3197 16.3207C25.4951 16.6915 21.0752 12.2401 22.7067 5.01642C17.4221 8.84658 17.2703 15.2949 18.9003 19.4638C20.5987 23.8108 18.8317 27.4227 14.6843 27.824C10.0522 28.2735 7.47921 22.9408 9.85153 14.4473C5.58987 19.3745 3.25385 25.6355 3.26321 32.1052C3.26321 47.1771 15.6812 59.3947 31.0001 59.3947C46.319 59.3947 58.7369 47.1771 58.7369 32.1052C58.7369 28.7936 58.1381 25.6216 57.0401 22.6856C56.2895 31.3347 51.602 35.7797 46.704 33.7105C42.116 31.7713 45.2078 24.2122 45.4363 20.6051C45.8213 14.4907 45.4167 7.49174 34.1278 1.67266C38.8186 10.5 34.6711 15.9868 30.3197 16.3207Z" fill="white"/>
</mask>
<g mask="url(#mask1_147_539)">
<path d="M50.579 49.7631C50.579 46.2524 49.6262 42.9633 47.9604 40.13C48.2002 45.0806 43.7803 47.0214 41.4014 46.0839C37.9669 44.7306 38.8872 42.4062 38.0028 37.5904C37.1185 32.7746 33.7199 29.4293 28.6882 27.9589C32.3592 38.125 26.6536 41.8717 23.6629 42.5411C20.6086 43.2249 17.5396 42.5395 17.1888 36.1088C15.3583 37.897 13.9061 40.0245 12.9162 42.3681C11.9262 44.7118 11.4181 47.2252 11.4212 49.7631C11.4212 60.4012 20.1876 69.0263 31.0001 69.0263C41.8126 69.0263 50.579 60.4012 50.579 49.7631Z" fill="#FFCC4D"/>
</g>
</g>
<defs>
<clipPath id="clip0_147_539">
<rect width="62" height="61" fill="white"/>
</clipPath>
</defs>
</svg>
