<svg width="135" height="105" viewBox="0 0 135 105" fill="none" xmlns="http://www.w3.org/2000/svg">
<path d="M20.3626 97.2759C20.3626 97.2759 1.05519 93.0562 0.0470884 74.8104C-1.13587 53.4207 20.3626 49.3347 20.3626 49.3347C20.3626 49.3347 17.1367 21.8197 57.5537 21.8197C109.363 21.8197 107.643 54.9266 107.643 54.9266C107.643 54.9266 120.972 53.8525 129.572 66.7509C141.781 85.0663 125.488 99.2119 125.488 99.2119" fill="url(#paint0_linear_116_214)"/>
<path d="M31.2251 56.4842C31.2251 56.6769 31.0646 56.834 30.8665 56.834C30.6684 56.834 30.5079 56.6769 30.5079 56.4842C30.5079 56.2915 30.6684 56.1345 30.8665 56.1345C31.0646 56.1345 31.2251 56.2915 31.2251 56.4842ZM60.2193 80.0079C60.2193 80.1114 60.1426 80.1952 60.0463 80.1952C59.9517 80.1952 59.8732 80.1114 59.8732 80.0079C59.8732 79.9044 59.9499 79.8205 60.0463 79.8205C60.1426 79.8188 60.2193 79.9026 60.2193 80.0079ZM37.3897 61.3963C37.3897 61.589 37.2292 61.746 37.0311 61.746C36.8331 61.746 36.6725 61.589 36.6725 61.3963C36.6725 61.2036 36.8331 61.0466 37.0311 61.0466C37.2292 61.0466 37.3897 61.2036 37.3897 61.3963ZM10.9542 75.6097C10.9542 75.8024 10.7936 75.9594 10.5955 75.9594C10.3975 75.9594 10.2369 75.8024 10.2369 75.6097C10.2369 75.417 10.3975 75.26 10.5955 75.26C10.7936 75.2618 10.9542 75.417 10.9542 75.6097ZM19.4847 72.8905C19.4847 73.0832 19.3241 73.2402 19.1261 73.2402C18.928 73.2402 18.7674 73.0832 18.7674 72.8905C18.7674 72.6978 18.928 72.5408 19.1261 72.5408C19.3241 72.5408 19.4847 72.6978 19.4847 72.8905ZM5.46581 69.7092C5.46581 69.9019 5.30522 70.0589 5.10717 70.0589C4.90912 70.0589 4.74854 69.9019 4.74854 69.7092C4.74854 69.5165 4.90912 69.3594 5.10717 69.3594C5.30522 69.3594 5.46581 69.5147 5.46581 69.7092ZM33.6089 70.4032C33.6089 70.5959 33.4483 70.7529 33.2503 70.7529C33.0522 70.7529 32.8916 70.5959 32.8916 70.4032C32.8916 70.2105 33.0522 70.0535 33.2503 70.0535C33.4483 70.0553 33.6089 70.2105 33.6089 70.4032Z" fill="black"/>
<path opacity="0.8" d="M19.7167 69.0061C23.8131 69.0061 27.1339 65.6854 27.1339 61.589C27.1339 57.4926 23.8131 54.1718 19.7167 54.1718C15.6203 54.1718 12.2996 57.4926 12.2996 61.589C12.2996 65.6854 15.6203 69.0061 19.7167 69.0061Z" fill="url(#paint1_linear_116_214)"/>
<path opacity="0.1" d="M6.66663 75.3064H22.2093C23.055 74.8693 23.6313 73.9861 23.6313 72.9655C23.6313 71.6451 22.6625 70.5514 21.3992 70.364C21.401 70.3212 21.4028 70.2784 21.4028 70.2355C21.4028 68.6904 20.1253 67.4378 18.5498 67.4378C18.3856 67.4378 18.2233 67.4521 18.0662 67.4789C17.3864 66.2995 16.0607 65.5001 14.537 65.5001C12.7617 65.5001 11.2557 66.5867 10.7276 68.0926C10.5617 68.0587 10.3886 68.0409 10.2137 68.0409C8.6989 68.0409 7.47311 69.3434 7.47311 70.9492C7.47311 71.1295 7.48917 71.3061 7.51772 71.4774C6.37222 71.5505 5.46582 72.4284 5.46582 73.5007C5.46582 74.2876 5.95292 74.971 6.66663 75.3064Z" fill="white"/>
<path d="M69.5066 104.458C101.813 104.458 128.002 102.395 128.002 99.8506C128.002 97.3063 101.813 95.2437 69.5066 95.2437C37.2006 95.2437 11.0115 97.3063 11.0115 99.8506C11.0115 102.395 37.2006 104.458 69.5066 104.458Z" fill="url(#paint2_linear_116_214)"/>
<path d="M91.5636 87.7641H78.4493V86.1511H91.5636C93.7226 86.1511 95.4533 85.4784 96.7077 84.1509C99.4019 81.2961 99.1467 76.3073 99.1432 76.2574L99.1414 76.2324L99.2003 45.0614L100.811 45.0168L100.753 76.1771C100.774 76.5607 101.008 81.9367 97.8853 85.2536C96.3151 86.9183 94.1883 87.7641 91.5636 87.7641ZM45.5066 87.7641H58.6209V86.1511H45.5066C43.3476 86.1511 41.6169 85.4784 40.3626 84.1509C37.6684 81.2961 37.9235 76.3073 37.9271 76.2574L37.9289 76.2324L37.87 45.0614L36.2588 45.0168L36.3177 76.1771C36.2963 76.5607 36.0625 81.9367 39.185 85.2536C40.7551 86.9183 42.882 87.7641 45.5066 87.7641ZM55.0916 42.4136H56.5422V67.6626H55.0916V42.4136ZM69.5477 42.4136H70.9983V70.4032H69.5477V42.4136ZM84.0055 42.4136H85.4561V70.4032H84.0055V42.4136Z" fill="white"/>
<path d="M31.5232 47.2935H106.478C110.553 45.1899 113.34 40.9255 113.34 36.0081C113.34 29.6401 108.667 24.3676 102.576 23.463C102.585 23.256 102.59 23.049 102.59 22.8421C102.59 15.391 96.4309 9.35308 88.8317 9.35308C88.0377 9.35308 87.2598 9.4191 86.5015 9.54578C83.2274 3.86113 76.8344 0 69.4833 0C60.9188 0 53.6551 5.24037 51.109 12.5005C50.306 12.3381 49.4782 12.2525 48.6306 12.2525C41.3294 12.2525 35.4093 18.5331 35.4093 26.2803C35.4093 27.1511 35.4842 28.0039 35.6287 28.83C30.1011 29.1833 25.7368 33.4156 25.7368 38.5864C25.7368 42.3815 28.0867 45.6716 31.5232 47.2935Z" fill="url(#paint3_linear_116_214)"/>
<path d="M76.5363 31.6438L68.6427 43.4235L60.6653 38.0778L68.5606 26.2982L76.5363 31.6438Z" fill="url(#paint4_linear_116_214)"/>
<path d="M68.4732 42.1425L65.9075 36.895L69.0264 35.166C69.0264 35.166 69.1298 27.847 69.2315 27.9166C69.335 27.9862 75.2873 31.974 75.2873 31.974L68.4732 42.1425Z" fill="white"/>
<path d="M66.6285 34.2363C66.1307 33.9027 65.9987 33.2282 66.3305 32.7304C66.6642 32.2326 67.3386 32.1006 67.8364 32.4325C68.0756 32.5927 68.2413 32.8413 68.2972 33.1237C68.3531 33.4061 68.2945 33.6991 68.1344 33.9384C67.9742 34.1775 67.7255 34.3433 67.4432 34.3992C67.1608 34.455 66.8677 34.3965 66.6285 34.2363Z" fill="white"/>
<path d="M105.857 31.1942L100.97 35.1641L100.456 32.5199L104.358 29.351L105.857 31.1942Z" fill="url(#paint5_linear_116_214)"/>
<path d="M109.485 35.6602L101.771 41.9247L97.3784 36.5166L105.092 30.2521L109.485 35.6602Z" fill="url(#paint6_linear_116_214)"/>
<path d="M79.1431 43.0737H90.3999V50.6979H79.1431V43.0737Z" fill="#A90D00"/>
<path d="M79.9124 50.0199L82.239 46.0089L84.7584 47.3025C84.7584 47.3025 89.6312 44.1354 89.6312 44.2336V50.0217H79.9124V50.0199Z" fill="url(#paint7_linear_116_214)"/>
<path d="M85.4567 46.12C85.9059 45.9624 86.1422 45.4706 85.9847 45.0215C85.8271 44.5724 85.3353 44.336 84.8862 44.4935C84.4371 44.6511 84.2007 45.1429 84.3583 45.592C84.5158 46.0411 85.0076 46.2775 85.4567 46.12Z" fill="white"/>
<path d="M75.6836 56.8893L69.3816 56.6288L70.7483 54.3039L75.7817 54.5127L75.6836 56.8893Z" fill="url(#paint8_linear_116_214)"/>
<path d="M75.4445 62.6488L65.499 62.2385L65.7863 55.2638L75.7335 55.6742L75.4445 62.6488Z" fill="url(#paint9_linear_116_214)"/>
<path d="M49.9065 49.308H61.1634V56.9321H49.9065V49.308Z" fill="url(#paint10_linear_116_214)"/>
<path d="M50.6753 56.2541L53.002 52.2431L55.5213 53.5367C55.5213 53.5367 60.3941 50.3696 60.3941 50.4677V56.2559H50.6753V56.2541Z" fill="url(#paint11_linear_116_214)"/>
<path d="M55.9353 52.4054C56.4112 52.4054 56.7971 52.0196 56.7971 51.5436C56.7971 51.0677 56.4112 50.6818 55.9353 50.6818C55.4593 50.6818 55.0735 51.0677 55.0735 51.5436C55.0735 52.0196 55.4593 52.4054 55.9353 52.4054Z" fill="url(#paint12_linear_116_214)"/>
<path d="M31.5608 37.2709L36.3631 31.35L45.1053 38.4406L40.3028 44.3615L31.5608 37.2709Z" fill="#0040A9"/>
<path d="M44.0845 38.4846L39.7505 40.1351L38.6086 37.5443C38.6086 37.5443 32.8294 36.9341 32.8919 36.8574L36.5371 32.3629L44.0845 38.4846Z" fill="url(#paint13_linear_116_214)"/>
<path d="M37.7002 39.3714C37.6297 39.4613 37.5419 39.5362 37.4421 39.5918C37.3424 39.6474 37.2325 39.6826 37.119 39.6953C37.0055 39.7081 36.8905 39.6981 36.7809 39.6661C36.6712 39.634 36.5691 39.5804 36.4803 39.5085C36.3916 39.4365 36.3181 39.3477 36.264 39.247C36.2099 39.1464 36.1764 39.036 36.1654 38.9223C36.1544 38.8086 36.1661 38.6938 36.1999 38.5847C36.2336 38.4756 36.2887 38.3742 36.362 38.2866C36.5072 38.1131 36.7147 38.0037 36.9398 37.9819C37.1649 37.9601 37.3896 38.0277 37.5653 38.1701C37.741 38.3125 37.8536 38.5184 37.8789 38.7431C37.9041 38.9679 37.84 39.1936 37.7002 39.3714Z" fill="white"/>
<path d="M53.6249 26.5872L48.2507 21.1898L51.3696 20.2495L55.6608 24.5585L53.6249 26.5872Z" fill="url(#paint14_linear_116_214)"/>
<path d="M48.6931 31.4975L40.2107 22.9812L46.1826 17.0343L54.665 25.5506L48.6931 31.4975Z" fill="url(#paint15_linear_116_214)"/>
<path d="M74.87 11.1284L64.764 18.1691L59.9946 11.3247L70.1024 4.284L74.87 11.1284Z" fill="url(#paint16_linear_116_214)"/>
<path d="M65.0297 17.0789L64.6086 12.0223L67.6794 11.6066C67.6794 11.6066 70.072 5.71495 70.1345 5.80416C70.1969 5.89338 73.7547 10.9999 73.7547 10.9999L65.0297 17.0789Z" fill="url(#paint17_linear_116_214)"/>
<path d="M66.0325 10.0989C65.9617 9.99747 65.9116 9.88307 65.885 9.76225C65.8584 9.64143 65.8559 9.51655 65.8776 9.39476C65.8994 9.27297 65.9448 9.15665 66.0115 9.05245C66.0782 8.94825 66.1648 8.85821 66.2663 8.78748C66.3677 8.71667 66.4821 8.66654 66.6029 8.63997C66.7238 8.61339 66.8486 8.61088 66.9704 8.63259C67.0922 8.6543 67.2085 8.69979 67.3127 8.76647C67.4169 8.83316 67.507 8.91972 67.5777 9.02122C67.6485 9.12266 67.6986 9.23706 67.7252 9.35788C67.7518 9.4787 67.7543 9.60358 67.7326 9.72537C67.7109 9.84716 67.6654 9.96348 67.5987 10.0677C67.532 10.1719 67.4455 10.2619 67.344 10.3326C67.1391 10.4755 66.8858 10.5312 66.6399 10.4873C66.3939 10.4435 66.1755 10.3038 66.0325 10.0989Z" fill="url(#paint18_linear_116_214)"/>
<path d="M78.553 22.8344L83.3084 14.4912L95.6274 21.513L90.872 29.8562L78.553 22.8344Z" fill="#0040A9"/>
<path d="M79.8176 22.5744L84.8653 19.6357L86.8155 22.6208C86.8155 22.6208 94.1238 22.1944 94.0614 22.3014C93.9989 22.4085 90.4518 28.6338 90.4518 28.6338L79.8176 22.5744Z" fill="url(#paint19_linear_116_214)"/>
<path d="M87.5703 20.1639C87.8665 19.6429 88.5302 19.4627 89.0512 19.7589C89.5722 20.0551 89.7524 20.7188 89.4563 21.238C89.1601 21.759 88.4963 21.941 87.9771 21.6431C87.8529 21.573 87.7438 21.479 87.6561 21.3666C87.5684 21.2542 87.5038 21.1256 87.466 20.9881C87.4281 20.8506 87.4179 20.707 87.4358 20.5656C87.4537 20.4241 87.4994 20.2876 87.5703 20.1639Z" fill="url(#paint20_linear_116_214)"/>
<path d="M47.8851 96.8334C47.8851 96.8334 46.1704 99.1601 40.3484 99.0192C36.1054 98.9175 31.8999 95.7058 31.8999 95.7058C31.8999 95.7058 39.0994 90.9329 47.8851 96.8334Z" fill="#34A853"/>
<path d="M47.7936 97.0761C47.7936 97.0761 44.2822 97.4544 39.5967 92.0998C36.1817 88.1959 35.5964 81.7565 35.5964 81.7565C35.5964 81.7565 45.8434 84.2937 47.7936 97.0761Z" fill="#0044B4"/>
<path d="M47.635 96.9815C47.635 96.9815 44.4341 95.4881 43.1976 88.4813C42.2948 83.3748 45.1282 77.5599 45.1282 77.5599C45.1282 77.5599 52.581 85.0341 47.635 96.9815Z" fill="#1A51AC"/>
<path d="M92.6519 94.9492C92.6519 94.9492 94.3665 97.2759 100.189 97.135C104.432 97.0333 108.637 93.8216 108.637 93.8216C108.637 93.8216 101.438 89.0505 92.6519 94.9492Z" fill="#34A853"/>
<path d="M92.7429 95.1937C92.7429 95.1937 96.2543 95.5719 100.94 90.2174C104.355 86.3134 104.94 79.874 104.94 79.874C104.94 79.874 94.6931 82.4112 92.7429 95.1937Z" fill="#0044B4"/>
<path d="M92.9017 95.0991C92.9017 95.0991 96.1026 93.6057 97.3391 86.5989C98.242 81.4924 95.4086 75.6775 95.4086 75.6775C95.4086 75.6775 87.9557 83.1517 92.9017 95.0991Z" fill="#1A51AC"/>
<path d="M94.6733 96.7799C94.6733 97.8327 93.8205 98.6855 92.7677 98.6855H47.974C46.9212 98.6855 46.0684 97.8327 46.0684 96.7799V68.4531C46.0684 67.4004 46.9212 66.5475 47.974 66.5475H92.7677C93.8205 66.5475 94.6733 67.4004 94.6733 68.4531V96.7799Z" fill="black"/>
<path d="M48.5557 69.0365H92.0255V96.3571H48.5557V69.0365Z" fill="url(#paint21_linear_116_214)"/>
<path d="M40.614 98.7391H100.074V99.8507H40.614V98.7391Z" fill="url(#paint22_linear_116_214)"/>
<path d="M40.614 99.8506C40.614 99.8506 41.5133 101.28 44.2682 101.28H96.5808C96.5808 101.28 98.3276 101.597 100.076 99.8506H40.614Z" fill="black"/>
<path fill-rule="evenodd" clip-rule="evenodd" d="M48.5557 70.38H92.1005V73.7219H48.5557V70.38Z" fill="url(#paint23_linear_116_214)"/>
<path d="M86.2072 72.0804C86.2072 72.5283 85.845 72.8905 85.3972 72.8905H56.469C56.0211 72.8905 55.6589 72.5283 55.6589 72.0804C55.6589 71.6326 56.0211 71.2704 56.469 71.2704H85.3989C85.845 71.2704 86.2072 71.6344 86.2072 72.0804Z" fill="white"/>
<path fill-rule="evenodd" clip-rule="evenodd" d="M48.5557 69.0365H92.022V70.3818H48.5557V69.0365Z" fill="url(#paint24_linear_116_214)"/>
<path d="M30.0743 100.509C35.5316 100.509 39.9556 99.8588 39.9556 99.0566C39.9556 98.2545 35.5316 97.6042 30.0743 97.6042C24.6171 97.6042 20.1931 98.2545 20.1931 99.0566C20.1931 99.8588 24.6171 100.509 30.0743 100.509Z" fill="url(#paint25_linear_116_214)"/>
<path d="M33.122 66.4778L31.8052 72.2624C31.7695 72.4194 31.8766 72.5747 32.0354 72.5978L36.1356 73.1867C36.2784 73.2063 36.4122 73.1153 36.4443 72.9743L37.7611 67.1898C37.7968 67.0327 37.6915 66.8775 37.5309 66.8543L33.4307 66.2655C33.2897 66.2441 33.1541 66.3369 33.122 66.4778Z" fill="black"/>
<path d="M33.3789 66.6652L32.1174 72.2036L36.1873 72.7888L37.4488 67.2487L33.3789 66.6652Z" fill="url(#paint26_linear_116_214)"/>
<path fill-rule="evenodd" clip-rule="evenodd" d="M37.0185 67.6573L33.5589 67.1595ZM36.9008 68.1801L33.4429 67.6841ZM35.4609 68.6154L33.3001 68.305ZM35.3074 69.0651L33.1449 68.7546ZM35.154 69.5147L32.9915 69.2042ZM35.9462 72.002L33.7855 71.6915Z" fill="black"/>
<path d="M37.0185 67.6573L33.5589 67.1595M36.9008 68.1801L33.4429 67.6841M35.4609 68.6154L33.3001 68.305M35.3074 69.0651L33.1449 68.7546M35.154 69.5147L32.9915 69.2042M35.9462 72.002L33.7855 71.6915" stroke="#A1BFF0" stroke-width="0.264249" stroke-linecap="round" stroke-linejoin="round"/>
<path d="M31.5446 72.332C31.7766 72.2232 31.9496 72.0198 32.1138 71.8235C32.2761 71.629 32.4403 71.4363 32.6027 71.2418C32.6669 71.1651 32.7347 71.0813 32.7418 70.9813C32.4688 70.9599 32.2922 71.3132 32.0192 71.3346C32.1459 70.885 32.3297 70.4514 32.5616 70.0464C32.6187 69.9483 32.6794 69.8323 32.6401 69.7252C32.3457 69.8376 32.0959 70.0482 31.8818 70.2783C31.7302 70.4407 31.5928 70.6156 31.4714 70.8011C31.111 71.3471 30.888 71.9734 30.7363 72.6086" fill="url(#paint27_linear_116_214)"/>
<path d="M30.3776 80.495L29.1055 83.4159C29.6425 84.3223 29.953 85.3928 29.994 86.4776C30.0154 87.0415 29.9655 87.6053 29.9815 88.1691C29.9833 88.2084 29.9887 88.2512 29.9994 88.2922C30.1707 87.4572 30.2974 86.7685 30.3473 86.3188C30.4865 85.0627 30.4865 83.0679 30.4437 80.4915C30.4205 80.4932 30.3991 80.4915 30.3776 80.495Z" fill="#F28A81"/>
<path d="M30.3689 76.9925L27.4409 74.5231C27.4409 74.5231 26.0777 76.3716 26.5916 78.154C26.845 79.0301 27.1608 79.4655 27.2982 79.8812C27.4266 80.2702 28.3081 85.7692 28.242 86.1725C28.176 86.5739 27.7032 87.6998 27.523 88.8828C27.3249 90.1835 27.3374 94.1695 27.2125 95.7825H27.2107C27.2107 95.7825 27.1108 96.9851 26.9681 97.2474C26.8253 97.5097 26.6273 97.8023 26.5916 98.1591C26.572 98.3643 26.6862 98.5838 26.9235 98.7051C27.1608 98.8264 27.3196 98.6998 27.4034 98.7105C27.8995 98.7711 27.9869 99.1476 28.838 99.2868C29.1003 99.3296 29.5017 99.2422 29.7319 99.0602C29.8211 98.9888 29.8175 98.8746 29.7676 98.7961C29.7176 98.7176 29.0896 98.5017 28.8059 98.3215C28.5365 98.1484 28.2724 97.6702 28.1992 97.5061C28.1796 97.4633 28.185 97.3455 28.201 97.1939C28.2403 96.9369 28.2831 96.6693 28.3295 96.3927C28.3669 96.1965 28.3973 96.0519 28.3973 96.0519L28.3884 96.0501C29.0075 92.5476 30.1619 87.9175 30.3403 86.3224C30.542 84.5417 30.4617 81.2872 30.3689 76.9925Z" fill="url(#paint28_linear_116_214)"/>
<path d="M29.8013 99.1191C29.8637 99.0138 29.8798 98.8532 29.8209 98.814C29.7406 98.7587 29.4569 98.5713 29.291 98.4946C29.125 98.4196 28.8645 98.3518 28.9573 98.4018C29.0501 98.4518 28.8806 98.6373 28.7254 98.6284C28.1919 98.5963 27.7993 98.2412 27.4942 98.1645C27.0553 98.0557 26.8715 97.5364 26.8519 97.4526C26.768 97.5043 26.5753 97.9218 26.5379 98.0539C26.5022 98.1716 26.4397 98.3893 26.4736 98.5124C26.4968 98.5981 26.5486 98.7694 26.5218 98.9496C26.5218 98.9496 26.6075 99.0156 26.8376 99.0638C26.9821 99.0941 27.1766 99.0691 27.1766 99.0691L27.2141 98.7943C27.2141 98.7943 27.3336 98.7908 27.4853 98.8211C27.637 98.8532 27.885 98.9977 27.8993 99.0138C27.9599 99.087 28.0081 99.219 28.0902 99.26C28.3025 99.3671 28.5184 99.4188 28.7896 99.4349C29.3623 99.467 29.696 99.3011 29.8013 99.1191Z" fill="black"/>
<path d="M34.3672 99.0655C34.3048 98.9959 33.6268 98.8853 33.3074 98.7533C33.004 98.6266 32.6365 98.2198 32.5651 98.0467C32.4937 97.8736 32.5098 96.9993 32.5187 96.6318C32.583 94.0999 33.0504 87.9157 33.1182 86.433C33.236 83.8583 32.9023 81.2015 31.9103 77.0674L28.2222 74.2358C28.2222 74.2358 27.1891 76.1556 27.5353 77.9916C27.7369 79.0568 28.6201 79.221 28.77 79.6349C28.9199 80.0489 31.1502 86.7238 31.1502 86.7238C31.1502 86.7238 30.7166 88.1673 30.6899 89.7481C30.6685 91.097 31.2805 95.1687 31.3946 96.7192C31.4071 97.0225 31.4607 97.7487 31.3714 97.9789C31.2626 98.2626 30.9825 98.5945 30.9968 98.9513C31.0039 99.1583 31.1538 99.3563 31.4161 99.4366C31.6766 99.5169 31.8229 99.367 31.9121 99.3635C32.4331 99.3421 32.5758 99.6989 33.4733 99.6989C33.7499 99.6989 34.1513 99.5455 34.3637 99.3278C34.4493 99.2475 34.4297 99.1351 34.3672 99.0655Z" fill="url(#paint29_linear_116_214)"/>
<path d="M34.4442 99.3831C34.4924 99.2671 34.487 99.1066 34.421 99.078C34.33 99.037 34.0106 98.8978 33.8286 98.8496C33.6484 98.8015 33.3683 98.7783 33.47 98.8122C33.5717 98.8461 33.4236 99.0584 33.263 99.0744C32.7081 99.1298 32.2531 98.8425 31.9284 98.8175C31.4609 98.78 31.2879 98.3001 31.2575 98.2198C31.179 98.2858 30.9489 98.7283 30.9257 98.8657C30.906 98.9888 30.8721 99.2136 30.9239 99.3296C30.9596 99.4099 31.0381 99.5705 31.0363 99.7542C31.0363 99.7542 31.1344 99.806 31.3771 99.8149C31.5305 99.8203 31.7286 99.765 31.7286 99.765V99.4866C31.7286 99.4866 31.8517 99.4634 32.0123 99.4688C32.1729 99.4741 32.3727 99.5562 32.469 99.6311C32.5458 99.6882 32.6261 99.7846 32.7153 99.8078C32.9758 99.8738 33.1613 99.8916 33.4432 99.8631C34.0392 99.7971 34.3604 99.5794 34.4442 99.3831Z" fill="black"/>
<path d="M27.5192 74.2127C27.2694 74.4874 26.3773 75.9737 26.3666 77.1852C26.3577 78.395 26.7877 79.1711 26.8269 79.4245C27.1106 81.273 27.3836 83.5015 27.3836 83.6228C27.3836 83.7442 28.4328 84.4436 29.8441 84.3544C32.4509 84.1902 33.4644 83.5069 33.4644 83.5069C33.4644 83.5069 33.3413 79.0302 32.938 76.8213C32.7364 75.715 31.8603 73.9343 31.8603 73.9343" fill="url(#paint30_linear_116_214)"/>
<path d="M25.1409 69.3773C25.1409 69.3773 25.5602 71.4631 25.6708 71.8342C25.7814 72.2053 26.3256 74.5623 26.8431 74.5213C27.3587 74.4803 30.1868 72.1197 30.1868 72.1197L29.7871 71.3186L27.298 72.5051C27.298 72.5051 27.0732 69.8109 26.8752 69.1685" fill="white"/>
<path d="M26.1025 70.662C26.3666 71.5934 26.9055 72.5747 27.0678 73.2973C27.0999 73.4419 28.8235 72.8156 28.8289 72.1679" fill="url(#paint31_linear_116_214)"/>
<path d="M25.8813 68.164C25.8813 68.164 25.7903 69.9072 26.1061 70.7869C26.4184 70.7815 26.6914 70.7101 26.6914 70.7101L25.8813 68.164Z" fill="#EA4335"/>
<path d="M30.772 61.0162C31.2698 61.6604 31.1717 62.5685 31.0486 63.3732C30.9861 63.7801 30.9237 64.1869 30.863 64.5937C30.8345 64.7864 30.7952 64.9987 30.6436 65.1236C30.4919 65.2485 30.2742 65.2467 30.0779 65.2396L30.0833 66.2512C29.507 66.2655 28.9307 66.2673 28.3543 66.2584C28.3543 66.0229 28.3026 65.7873 28.2045 65.5714C27.9226 65.5661 27.7334 65.2824 27.6228 65.0237C27.4961 64.7239 27.4033 64.4117 27.3123 64.0994C27.1928 63.6837 27.0786 63.2626 27.0679 62.8308C27.0572 62.399 27.1589 61.9512 27.4337 61.6175C27.621 61.3909 27.8744 61.2286 28.1367 61.093C28.4935 60.9074 28.9235 60.7593 29.2929 60.9217" fill="white"/>
<path d="M30.2688 62.4954C30.3134 62.5667 30.3027 62.6613 30.3455 62.7344C30.4169 62.8576 30.5114 62.9004 30.6399 62.9611C30.8469 63.0574 30.7987 63.3589 30.7933 63.4945C30.9504 63.3911 30.9753 63.1074 31.0128 62.9646C31.0556 62.804 31.0824 62.6381 31.1288 62.4775C31.1752 62.3223 31.2537 62.1742 31.268 62.0118C31.3179 61.4462 30.9628 60.7807 30.5346 60.4631C30.2224 60.2311 29.746 60.2418 29.3927 60.4774C29.2446 60.5755 29.1322 60.7254 29.0662 60.8931C29.0376 60.9645 29.018 61.0483 29.0537 61.1161" fill="black"/>
<path d="M27.4944 66.4939C27.5229 66.2959 27.5765 66.0657 27.7602 65.989C27.812 65.9676 27.8673 65.9604 27.9226 65.9551C28.4848 65.8927 29.0503 65.8658 29.6159 65.8748C29.8496 65.8784 30.0923 65.8908 30.301 65.9943C30.6293 66.1585 30.8095 66.5118 30.9683 66.8436" fill="url(#paint32_linear_116_214)"/>
<path d="M32.0638 70.2766C32.0638 70.4604 31.9603 70.7084 31.9282 70.8047C31.7997 70.8707 31.2894 70.9814 30.9968 70.8475C30.9325 70.2373 30.5757 69.0651 30.5757 69.0651C30.5757 69.0651 32.0638 70.1053 32.0638 70.2766Z" fill="#EA4335"/>
<path d="M31.4089 69.8519C31.4089 69.8519 33.0986 73.9343 33.8302 73.9343C34.3637 73.9343 35.6697 70.1659 35.6697 70.1659L34.8436 69.7752L33.923 71.3542L32.9898 68.4102" fill="white"/>
<path d="M34.6814 70.0553C34.6814 70.0553 34.9544 69.6235 34.9348 69.3184C34.9276 69.2024 34.858 68.6475 34.9151 68.5387C34.9722 68.4298 35.1114 68.073 35.1917 68.0034C35.2702 67.9338 35.5646 67.8232 35.636 67.8714C35.7073 67.9213 35.7966 67.6929 35.9161 67.7126C36.0356 67.7322 36.1338 67.8321 36.1338 67.9409C36.1338 68.0498 36.2926 68.0694 36.3122 68.1497C36.3318 68.2282 36.3229 68.2978 36.3515 68.3585C36.3818 68.4173 36.4692 68.3888 36.4996 68.5369C36.5281 68.6725 36.4889 68.6868 36.4996 68.7546C36.5103 68.8242 36.5691 68.817 36.5495 68.9491C36.5299 69.0811 36.4389 69.2524 36.3604 69.4023C36.2819 69.5504 36.1177 69.7377 35.9 69.8679C35.793 69.9322 35.7341 70.0464 35.6306 70.2391" fill="white"/>
<path d="M35.1347 66.9007C35.1133 66.8686 35.0562 66.8133 34.9884 66.8614C34.9206 66.9096 34.942 66.9899 34.9563 67.0238L35.4559 68.1532C35.4559 68.1532 35.4969 68.1996 35.5736 68.1318C35.6575 68.0587 35.6307 68.0212 35.6307 68.0212C35.6307 68.0212 35.1561 66.9328 35.1347 66.9007Z" fill="black"/>
<path d="M35.6609 67.9481C35.5664 68.1176 35.4558 68.1729 35.3558 68.2657C35.2773 68.3389 35.288 68.3852 35.2024 68.4602C35.3523 68.4495 35.3273 68.3603 35.5218 68.2193C35.6128 68.1551 35.7056 68.0837 35.7234 67.9731C35.7288 67.9356 35.6841 67.916 35.6609 67.9481Z" fill="black"/>
<path d="M32.0655 70.5942C32.6097 70.4942 33.0308 70.116 33.4644 69.6753C33.2235 69.0115 32.8827 67.3771 32.2868 66.7544C31.673 66.1121 30.6345 66.1906 30.0796 66.2102C29.5051 66.1853 29.0305 66.2531 28.3418 66.2834C27.885 66.303 27.4282 66.3565 26.9786 66.4565C26.9268 66.4672 26.8769 66.4797 26.8269 66.4921L26.8251 66.4868C26.8251 66.4868 25.999 66.5742 25.5815 66.8954C24.5145 67.7126 25.3406 70.6762 25.3406 70.6762C25.3406 70.6762 25.2889 70.835 26.0044 70.794C26.1257 70.7869 26.2435 70.7744 26.3559 70.7601C26.7288 71.6344 27.6673 73.4365 27.3925 73.8219C27.3212 73.9218 27.1427 74.1127 27.1213 74.2376C27.0428 74.6962 28.0777 74.8567 28.522 74.8942C29.1964 74.9495 29.9726 74.9121 30.6488 74.8817C31.1627 74.8567 32.2832 74.6783 32.3635 74.0449C32.3795 73.92 32.3171 73.8201 32.2564 73.7291C32.1779 73.6131 31.9959 73.4739 31.9317 73.3455C31.7747 73.0386 31.6391 71.745 31.6926 71.4149C31.7372 71.1526 31.9174 70.9796 32.0655 70.5942Z" fill="url(#paint33_linear_116_214)"/>
<path d="M30.344 84.3133C30.178 83.2392 29.1485 79.9098 29.1057 79.817C28.5454 79.3834 28.1761 78.9338 27.9887 78.5716C27.8621 79.3014 28.1957 80.024 28.5062 80.6949C29.0504 81.8689 29.3733 83.1446 29.8426 84.3508" fill="url(#paint34_linear_116_214)"/>
<path d="M30.1761 64.0888C30.1083 63.7497 30.1136 63.5588 30.2243 63.334C30.2617 63.2591 30.3099 63.1895 30.3759 63.1431C30.4651 63.0806 30.5847 63.0682 30.6846 63.111C30.7488 63.1395 30.8024 63.1913 30.8398 63.2555C30.9576 62.8005 30.9826 62.3152 30.9487 61.8442C30.8951 61.0948 30.4437 60.5149 29.7836 60.2455C28.5631 59.7441 26.8092 60.2401 26.3132 61.4373C25.9385 62.342 26.1294 63.6498 26.8449 64.4081C27.4801 65.0808 28.3918 65.1789 29.2358 65.0398C29.6676 64.9684 30.3331 65.0112 30.5561 64.426C30.574 64.3814 30.5347 64.335 30.4883 64.3386C30.3099 64.3493 30.1886 64.1512 30.1761 64.0888Z" fill="black"/>
<path d="M27.7941 64.6169C27.4426 64.517 27.0626 64.715 26.8289 64.9969C26.5576 65.3217 26.4399 65.8248 26.6933 66.1638C26.7878 66.2905 26.9216 66.3797 27.0608 66.4564C27.4801 66.6902 27.9761 66.8276 28.4418 66.7134C28.9075 66.5992 29.3161 66.1817 29.3108 65.7017C29.3054 65.2681 28.9896 64.9059 28.6684 64.6115" fill="black"/>
<path d="M122.103 61.8406C122.103 62.0333 121.942 62.1903 121.744 62.1903C121.546 62.1903 121.386 62.0333 121.386 61.8406C121.386 61.6479 121.546 61.4909 121.744 61.4909C121.942 61.4909 122.103 61.6479 122.103 61.8406ZM128.268 66.7527C128.268 66.9454 128.107 67.1024 127.909 67.1024C127.711 67.1024 127.55 66.9454 127.55 66.7527C127.55 66.56 127.711 66.4029 127.909 66.4029C128.107 66.4047 128.268 66.56 128.268 66.7527ZM94.7199 56.9321C94.7199 57.1248 94.5593 57.2818 94.3613 57.2818C94.1632 57.2818 94.0026 57.1248 94.0026 56.9321C94.0026 56.7394 94.1632 56.5824 94.3613 56.5824C94.5593 56.5824 94.7199 56.7394 94.7199 56.9321ZM80.271 61.0466C80.271 61.2393 80.1104 61.3963 79.9123 61.3963C79.7143 61.3963 79.5537 61.2393 79.5537 61.0466C79.5537 60.8539 79.7143 60.6969 79.9123 60.6969C80.1104 60.6987 80.271 60.8539 80.271 61.0466ZM96.3436 75.0655C96.3436 75.2582 96.183 75.4152 95.9849 75.4152C95.7869 75.4152 95.6263 75.2582 95.6263 75.0655C95.6263 74.8728 95.7869 74.7158 95.9849 74.7158C96.183 74.7158 96.3436 74.8728 96.3436 75.0655ZM124.487 75.7596C124.487 75.9523 124.326 76.1093 124.128 76.1093C123.93 76.1093 123.769 75.9523 123.769 75.7596C123.769 75.5669 123.93 75.4099 124.128 75.4099C124.326 75.4117 124.487 75.5669 124.487 75.7596Z" fill="black"/>
<path d="M120.595 98.8157C120.595 99.9077 116.161 100.794 110.691 100.794C105.22 100.794 100.786 99.9095 100.786 98.8157C100.786 97.7237 105.22 96.837 110.691 96.837C116.161 96.837 120.595 97.7237 120.595 98.8157Z" fill="url(#paint35_linear_116_214)"/>
<path d="M107.431 65.7624L108.744 71.5326C108.78 71.6897 108.675 71.8449 108.514 71.8663L104.426 72.4533C104.283 72.4729 104.15 72.382 104.118 72.241L102.804 66.4707C102.769 66.3137 102.874 66.1585 103.034 66.1353L107.122 65.5482C107.265 65.5304 107.399 65.6214 107.431 65.7624Z" fill="black"/>
<path d="M107.176 65.948L108.432 71.4721L104.373 72.0555L103.115 66.5315L107.176 65.948Z" fill="url(#paint36_linear_116_214)"/>
<path fill-rule="evenodd" clip-rule="evenodd" d="M103.545 66.9382L106.996 66.4422ZM103.661 67.461L107.112 66.965ZM105.097 67.8928L107.254 67.5841ZM105.251 68.3424L107.408 68.032ZM105.404 68.7903L107.561 68.4816ZM104.614 71.2704L106.769 70.9617Z" fill="black"/>
<path d="M103.545 66.9382L106.996 66.4422M103.661 67.461L107.112 66.965M105.097 67.8928L107.254 67.5841M105.251 68.3424L107.408 68.032M105.404 68.7903L107.561 68.4816M104.614 71.2704L106.769 70.9617" stroke="#A1BFF0" stroke-width="0.256219" stroke-linecap="round" stroke-linejoin="round"/>
<path d="M109.004 71.6004C108.772 71.4916 108.601 71.29 108.435 71.0937C108.273 70.901 108.11 70.7065 107.948 70.5138C107.884 70.4371 107.816 70.3533 107.809 70.2551C108.082 70.2337 108.257 70.587 108.53 70.6066C108.403 70.1588 108.221 69.7252 107.989 69.3219C107.932 69.2238 107.871 69.1078 107.911 69.0026C108.205 69.115 108.453 69.3237 108.667 69.5557C108.817 69.7181 108.954 69.8929 109.077 70.0767C109.436 70.6209 109.659 71.2454 109.811 71.8788" fill="black"/>
<path d="M110.168 79.742L111.438 82.6557C110.903 83.5604 110.593 84.6273 110.552 85.7086C110.53 86.2706 110.58 86.8345 110.564 87.3965C110.562 87.4358 110.557 87.4786 110.546 87.5196C110.377 86.6864 110.25 85.9994 110.2 85.5516C110.061 84.299 110.061 82.3096 110.106 79.7403C110.125 79.7403 110.147 79.7385 110.168 79.742Z" fill="#F28A81"/>
<path d="M110.175 76.2485L113.094 73.7862C113.094 73.7862 114.454 75.6293 113.942 77.4065C113.69 78.2807 113.374 78.7143 113.237 79.1283C113.108 79.5154 112.231 85.0003 112.297 85.4017C112.363 85.8032 112.834 86.9255 113.014 88.1049C113.212 89.402 113.198 93.3774 113.322 94.9868H113.324C113.324 94.9868 113.424 96.1858 113.565 96.448C113.706 96.7103 113.906 97.003 113.94 97.3562C113.961 97.5614 113.845 97.7791 113.61 97.9004C113.374 98.0218 113.215 97.8951 113.13 97.9058C112.636 97.9665 112.546 98.3411 111.699 98.4803C111.437 98.5231 111.037 98.4357 110.807 98.2537C110.717 98.1841 110.721 98.0699 110.771 97.9914C110.821 97.9129 111.447 97.6988 111.729 97.5168C111.999 97.3438 112.261 96.8674 112.336 96.7032C112.354 96.6604 112.35 96.5426 112.334 96.3927C112.297 96.1358 112.252 95.8682 112.206 95.5934C112.168 95.3971 112.138 95.2544 112.138 95.2544L112.147 95.2526C111.528 91.759 110.377 87.1431 110.2 85.5516C110.004 83.778 110.084 80.5325 110.175 76.2485Z" fill="black"/>
<path d="M110.743 98.3162C110.68 98.2109 110.664 98.0503 110.723 98.0111C110.803 97.9575 111.087 97.7684 111.251 97.6935C111.415 97.6185 111.676 97.5507 111.585 97.6007C111.494 97.6506 111.661 97.8362 111.817 97.8273C112.348 97.7952 112.741 97.4419 113.044 97.3652C113.481 97.2563 113.665 96.7389 113.685 96.655C113.767 96.7068 113.96 97.1243 113.999 97.2545C114.035 97.3723 114.097 97.5882 114.063 97.7113C114.04 97.797 113.988 97.9682 114.015 98.1467C114.015 98.1467 113.929 98.2127 113.701 98.2609C113.556 98.2912 113.362 98.2662 113.362 98.2662L113.324 97.9914C113.324 97.9914 113.205 97.9879 113.053 98.0182C112.902 98.0503 112.655 98.1931 112.639 98.2109C112.579 98.2841 112.53 98.4161 112.45 98.4553C112.238 98.5624 112.024 98.6141 111.752 98.6302C111.181 98.6623 110.848 98.4964 110.743 98.3162Z" fill="black"/>
<path d="M106.189 98.2626C106.251 98.193 106.928 98.0842 107.245 97.9504C107.547 97.8237 107.913 97.4186 107.984 97.2456C108.055 97.0743 108.039 96.2 108.03 95.8342C107.968 93.3095 107.5 87.1413 107.433 85.664C107.315 83.0964 107.649 80.445 108.637 76.3234L112.316 73.5007C112.316 73.5007 113.346 75.4152 113.001 77.2476C112.801 78.3092 111.92 78.4734 111.77 78.8873C111.622 79.2995 109.395 85.9584 109.395 85.9584C109.395 85.9584 109.829 87.3983 109.854 88.9755C109.875 90.3209 109.265 94.3818 109.151 95.9288C109.138 96.2303 109.085 96.9547 109.174 97.1849C109.283 97.4668 109.561 97.7987 109.547 98.1555C109.54 98.3625 109.39 98.5588 109.129 98.6409C108.869 98.7212 108.723 98.5713 108.633 98.5677C108.114 98.5463 107.971 98.9031 107.076 98.9031C106.799 98.9031 106.4 98.7515 106.187 98.5338C106.107 98.4446 106.127 98.3322 106.189 98.2626Z" fill="black"/>
<path d="M106.112 98.5785C106.064 98.4643 106.07 98.3037 106.136 98.2734C106.225 98.2323 106.546 98.0932 106.726 98.045C106.906 97.9968 107.185 97.9736 107.083 98.0075C106.981 98.0414 107.129 98.2537 107.29 98.268C107.843 98.3233 108.298 98.0378 108.621 98.0129C109.087 97.9754 109.26 97.4954 109.29 97.4169C109.369 97.4829 109.599 97.9254 109.62 98.061C109.64 98.1842 109.674 98.4072 109.622 98.5232C109.586 98.6035 109.508 98.764 109.51 98.946C109.51 98.946 109.412 98.9978 109.169 99.0067C109.015 99.0121 108.819 98.9567 108.819 98.9567V98.6784C108.819 98.6784 108.696 98.6552 108.535 98.6606C108.375 98.6659 108.177 98.748 108.079 98.8211C108.002 98.8782 107.923 98.9746 107.832 98.9978C107.574 99.0638 107.388 99.0816 107.106 99.0531C106.516 98.9924 106.196 98.7747 106.112 98.5785Z" fill="black"/>
<path d="M113.019 73.4757C113.269 73.7505 114.159 75.2332 114.168 76.4394C114.177 77.6455 113.749 78.4199 113.71 78.6715C113.428 80.5146 114.607 89.7963 114.607 89.9177C114.607 90.039 113.106 91.2523 111.706 91.4129C108.628 91.7644 105.727 90.4458 105.727 90.4458C105.727 90.4458 106.255 83.3231 107.615 76.0772C107.822 74.9745 108.69 73.1974 108.69 73.1974" fill="url(#paint37_linear_116_214)"/>
<path d="M115.39 68.6547C115.39 68.6547 114.971 70.7351 114.862 71.1063C114.752 71.4774 114.209 73.8272 113.694 73.7862C113.178 73.7452 110.359 71.3899 110.359 71.3899L110.759 70.5906L113.242 71.7736C113.242 71.7736 113.467 69.0865 113.663 68.4459" fill="black"/>
<path d="M114.652 67.4431C114.652 67.4431 114.743 69.181 114.427 70.0588C114.117 70.0535 113.844 69.9821 113.844 69.9821L114.652 67.4431Z" fill="#EA4335"/>
<path d="M109.773 60.315C109.277 60.9574 109.376 61.862 109.499 62.6649C109.561 63.0699 109.622 63.4767 109.684 63.8835C109.713 64.0762 109.752 64.2868 109.904 64.4117C110.055 64.5366 110.271 64.5348 110.468 64.5259L110.462 65.534C111.037 65.5482 111.611 65.55 112.188 65.5411C112.188 65.3056 112.239 65.0701 112.336 64.856C112.618 64.8506 112.805 64.5687 112.916 64.31C113.042 64.012 113.135 63.6998 113.224 63.3875C113.344 62.9736 113.458 62.5525 113.469 62.1225C113.479 61.6925 113.378 61.2446 113.105 60.9127C112.917 60.6861 112.664 60.5256 112.403 60.39C112.047 60.2044 111.618 60.0563 111.251 60.2205" fill="white"/>
<path d="M110.275 61.7888C110.23 61.8602 110.241 61.9548 110.198 62.0279C110.127 62.1493 110.032 62.1939 109.904 62.2528C109.697 62.3491 109.745 62.6489 109.752 62.7845C109.597 62.681 109.572 62.3991 109.533 62.2545C109.49 62.094 109.463 61.928 109.417 61.7692C109.37 61.614 109.292 61.4677 109.277 61.3035C109.227 60.7379 109.581 60.076 110.009 59.7584C110.321 59.5282 110.796 59.5371 111.149 59.7726C111.297 59.8708 111.41 60.0206 111.474 60.1866C111.502 60.258 111.522 60.34 111.486 60.4078" fill="black"/>
<path d="M113.042 65.7766C113.014 65.5804 112.96 65.3502 112.776 65.2735C112.726 65.252 112.669 65.2449 112.614 65.2396C112.054 65.1771 111.488 65.1503 110.924 65.1593C110.691 65.1628 110.45 65.1753 110.241 65.2788C109.913 65.443 109.732 65.7962 109.575 66.1263" fill="url(#paint38_linear_116_214)"/>
<path d="M108.487 69.5503C108.487 69.7341 108.591 69.9803 108.623 70.0785C108.751 70.1445 109.26 70.2533 109.553 70.1213C109.617 69.5129 109.972 68.3442 109.972 68.3442C109.972 68.3442 108.487 69.3808 108.487 69.5503Z" fill="#EA4335"/>
<path d="M109.14 69.1257C109.14 69.1257 107.456 73.1973 106.724 73.1973C106.192 73.1973 104.888 69.4397 104.888 69.4397L105.713 69.049L106.631 70.6227L107.561 67.6876" fill="black"/>
<path d="M105.877 69.3291C105.877 69.3291 105.604 68.8991 105.623 68.594C105.631 68.478 105.7 67.9249 105.643 67.816C105.586 67.7072 105.447 67.3504 105.368 67.2826C105.29 67.213 104.997 67.1023 104.924 67.1523C104.853 67.2023 104.763 66.9739 104.644 66.9935C104.526 67.0131 104.426 67.1131 104.426 67.2219C104.426 67.3307 104.267 67.3504 104.248 67.4289C104.228 67.5074 104.237 67.577 104.209 67.6358C104.178 67.6947 104.091 67.6662 104.06 67.8143C104.032 67.9499 104.071 67.9624 104.06 68.0319C104.052 68.1015 103.991 68.0944 104.01 68.2264C104.03 68.3585 104.121 68.5298 104.2 68.6778C104.278 68.8259 104.442 69.0115 104.66 69.1435C104.767 69.2078 104.826 69.322 104.928 69.5129" fill="black"/>
<path d="M105.424 66.1834C105.445 66.1513 105.502 66.0978 105.57 66.1442C105.638 66.1906 105.616 66.2726 105.602 66.3065L105.104 67.4342C105.104 67.4342 105.063 67.4806 104.986 67.4128C104.903 67.3396 104.929 67.3022 104.929 67.3022C104.929 67.3022 105.402 66.2155 105.424 66.1834Z" fill="white"/>
<path d="M104.899 67.2291C104.994 67.3986 105.104 67.4521 105.202 67.5449C105.279 67.618 105.27 67.6644 105.356 67.7394C105.206 67.7286 105.231 67.6394 105.038 67.5003C104.949 67.436 104.854 67.3647 104.838 67.254C104.831 67.2166 104.876 67.1969 104.899 67.2291Z" fill="black"/>
<path d="M108.484 69.868C107.941 69.768 107.52 69.3916 107.088 68.9509C107.327 68.2889 107.668 66.6581 108.262 66.0372C108.874 65.3966 109.909 65.4751 110.464 65.4947C111.037 65.4698 111.51 65.5376 112.197 65.5679C112.653 65.5875 113.108 65.6411 113.556 65.7392C113.608 65.7499 113.658 65.7624 113.708 65.7749L113.71 65.7695C113.71 65.7695 114.532 65.857 114.95 66.1763C116.013 66.9917 115.191 69.9465 115.191 69.9465C115.191 69.9465 115.242 70.1035 114.529 70.0642C114.407 70.0571 114.29 70.0464 114.179 70.0303C113.808 70.9028 112.873 72.6996 113.144 73.0832C113.216 73.1831 113.392 73.374 113.414 73.4971C113.492 73.9539 112.459 74.1145 112.016 74.152C111.342 74.2073 110.569 74.1698 109.895 74.1377C109.383 74.1127 108.264 73.9343 108.186 73.3027C108.17 73.1778 108.232 73.0778 108.293 72.9886C108.371 72.8727 108.551 72.7335 108.617 72.6068C108.773 72.2999 108.91 71.0099 108.857 70.6816C108.812 70.4247 108.634 70.2516 108.484 69.868Z" fill="#A90D00"/>
<path d="M110.37 63.3804C110.437 63.0432 110.432 62.8522 110.321 62.6274C110.284 62.5525 110.236 62.4829 110.17 62.4365C110.081 62.3741 109.961 62.3616 109.863 62.4044C109.799 62.4329 109.745 62.4847 109.708 62.5489C109.59 62.0957 109.567 61.6122 109.599 61.1411C109.652 60.3935 110.104 59.8154 110.76 59.546C111.977 59.0464 113.728 59.5407 114.222 60.7361C114.595 61.6389 114.406 62.9414 113.69 63.698C113.057 64.3689 112.147 64.467 111.306 64.3278C110.876 64.2564 110.213 64.2993 109.99 63.714C109.972 63.6694 110.011 63.623 110.057 63.6266C110.236 63.6391 110.357 63.441 110.37 63.3804Z" fill="black"/>
<path d="M112.745 63.9067C113.096 63.8068 113.474 64.0049 113.708 64.285C113.977 64.608 114.095 65.1111 113.842 65.4483C113.747 65.575 113.613 65.6642 113.476 65.741C113.059 65.9729 112.563 66.1103 112.099 65.9961C111.635 65.8819 111.226 65.4662 111.231 64.988C111.237 64.5562 111.553 64.194 111.872 63.9014" fill="black"/>
<path d="M110.17 62.4347C110.17 62.4347 110.527 62.4383 110.061 63.6266C109.595 64.8149 109.551 67.056 109.551 67.056C109.551 67.056 110.826 67.5841 112.541 67.5395C114.256 67.4949 114.432 67.4949 114.475 67.3629C114.52 67.2308 115.574 60.8128 113.244 59.7137" fill="black"/>
<path opacity="0.1" d="M116.504 80.4183H130.83C131.608 80.0168 132.141 79.2014 132.141 78.2611C132.141 77.0442 131.247 76.0361 130.084 75.8631C130.086 75.8238 130.087 75.7845 130.087 75.7435C130.087 74.3197 128.91 73.1653 127.457 73.1653C127.306 73.1653 127.158 73.1777 127.011 73.2027C126.385 72.1161 125.163 71.3792 123.759 71.3792C122.123 71.3792 120.734 72.3802 120.247 73.7683C120.094 73.738 119.935 73.7202 119.774 73.7202C118.379 73.7202 117.248 74.921 117.248 76.4019C117.248 76.5678 117.262 76.732 117.289 76.889C116.233 76.9568 115.398 77.7651 115.398 78.7535C115.398 79.4797 115.847 80.1078 116.504 80.4183Z" fill="white"/>
<defs>
<linearGradient id="paint0_linear_116_214" x1="5605.39" y1="5319.62" x2="7180.53" y2="1474.38" gradientUnits="userSpaceOnUse">
<stop stop-color="#0046BB"/>
<stop offset="1"/>
</linearGradient>
<linearGradient id="paint1_linear_116_214" x1="769.221" y1="26.9657" x2="736.971" y2="1660.8" gradientUnits="userSpaceOnUse">
<stop stop-color="#88A7DA"/>
<stop offset="0.00834" stop-color="#89A7D9"/>
<stop offset="0.4784" stop-color="#BBC6D9"/>
<stop offset="0.8218" stop-color="#F0DDA7"/>
<stop offset="1" stop-color="#FFE7A0"/>
</linearGradient>
<linearGradient id="paint2_linear_116_214" x1="5860.41" y1="1403.66" x2="5860.41" y2="55.3198" gradientUnits="userSpaceOnUse">
<stop stop-color="#0046BB"/>
<stop offset="0.1178" stop-color="#0043B3"/>
<stop offset="0.3928" stop-color="#003DA2"/>
<stop offset="0.6413" stop-color="#003895"/>
<stop offset="0.852" stop-color="#00358E"/>
<stop offset="1"/>
</linearGradient>
<linearGradient id="paint3_linear_116_214" x1="4405.82" y1="32.1123" x2="4405.82" y2="4804.6" gradientUnits="userSpaceOnUse">
<stop stop-color="#3380FF"/>
<stop offset="0.1585" stop-color="#3782FF"/>
<stop offset="0.3535" stop-color="#438AFF"/>
<stop offset="0.5676" stop-color="#498DFF"/>
<stop offset="0.7937" stop-color="#4285F4"/>
<stop offset="1" stop-color="#0060FF"/>
</linearGradient>
<linearGradient id="paint4_linear_116_214" x1="60.7446" y1="882.546" x2="1647.76" y2="882.546" gradientUnits="userSpaceOnUse">
<stop stop-color="#E1A700"/>
<stop offset="0.2072" stop-color="#E3AA04"/>
<stop offset="0.462" stop-color="#E9B110"/>
<stop offset="0.7405" stop-color="#FBBC05"/>
<stop offset="1" stop-color="#FFCD3B"/>
</linearGradient>
<linearGradient id="paint5_linear_116_214" x1="339.907" y1="629.258" x2="401.688" y2="20.6619" gradientUnits="userSpaceOnUse">
<stop stop-color="#E1A700"/>
<stop offset="0.2072" stop-color="#E3AA04"/>
<stop offset="0.462" stop-color="#E9B110"/>
<stop offset="0.7405" stop-color="#FBBC05"/>
<stop offset="1" stop-color="#FFCD3B"/>
</linearGradient>
<linearGradient id="paint6_linear_116_214" x1="642.363" y1="1166.49" x2="754.635" y2="60.5067" gradientUnits="userSpaceOnUse">
<stop stop-color="#E1A700"/>
<stop offset="0.2072" stop-color="#E3AA04"/>
<stop offset="0.462" stop-color="#E9B110"/>
<stop offset="0.7405" stop-color="#FBBC05"/>
<stop offset="1" stop-color="#FFCD3B"/>
</linearGradient>
<linearGradient id="paint7_linear_116_214" x1="565.884" y1="855.67" x2="565.884" y2="123.478" gradientUnits="userSpaceOnUse">
<stop stop-color="#A1C4FF"/>
<stop offset="0.8221" stop-color="white"/>
</linearGradient>
<linearGradient id="paint8_linear_116_214" x1="194.555" y1="222.54" x2="471.434" y2="-33.4135" gradientUnits="userSpaceOnUse">
<stop stop-color="#E1A700"/>
<stop offset="0.2072" stop-color="#E3AA04"/>
<stop offset="0.462" stop-color="#E9B110"/>
<stop offset="0.7405" stop-color="#FBBC05"/>
<stop offset="1" stop-color="#FFCD3B"/>
</linearGradient>
<linearGradient id="paint9_linear_116_214" x1="137.683" y1="636.068" x2="822.548" y2="2.97499" gradientUnits="userSpaceOnUse">
<stop stop-color="#E1A700"/>
<stop offset="0.2072" stop-color="#E3AA04"/>
<stop offset="0.462" stop-color="#E9B110"/>
<stop offset="0.7405" stop-color="#FBBC05"/>
<stop offset="1" stop-color="#FFCD3B"/>
</linearGradient>
<linearGradient id="paint10_linear_116_214" x1="49.8952" y1="430.538" x2="1175.65" y2="430.538" gradientUnits="userSpaceOnUse">
<stop stop-color="#3380FF"/>
<stop offset="0.1585" stop-color="#3782FF"/>
<stop offset="0.3535" stop-color="#438AFF"/>
<stop offset="0.5676" stop-color="#498DFF"/>
<stop offset="0.7937" stop-color="#4285F4"/>
<stop offset="1" stop-color="#0060FF"/>
</linearGradient>
<linearGradient id="paint11_linear_116_214" x1="50.7336" y1="339.828" x2="1022.54" y2="339.828" gradientUnits="userSpaceOnUse">
<stop stop-color="#88A7DA"/>
<stop offset="0.00834" stop-color="#89A7D9"/>
<stop offset="0.4784" stop-color="#BBC6D9"/>
<stop offset="0.8218" stop-color="#F0DDA7"/>
<stop offset="1" stop-color="#FFE7A0"/>
</linearGradient>
<linearGradient id="paint12_linear_116_214" x1="55.1993" y1="136.787" x2="227.478" y2="136.787" gradientUnits="userSpaceOnUse">
<stop stop-color="#88A7DA"/>
<stop offset="0.00834" stop-color="#89A7D9"/>
<stop offset="0.4784" stop-color="#BBC6D9"/>
<stop offset="0.8218" stop-color="#F0DDA7"/>
<stop offset="1" stop-color="#FFE7A0"/>
</linearGradient>
<linearGradient id="paint13_linear_116_214" x1="921.381" y1="294.046" x2="604.214" y2="685.081" gradientUnits="userSpaceOnUse">
<stop stop-color="#A1C4FF"/>
<stop offset="0.8221" stop-color="white"/>
</linearGradient>
<linearGradient id="paint14_linear_116_214" x1="48.2063" y1="337.102" x2="789.253" y2="337.102" gradientUnits="userSpaceOnUse">
<stop stop-color="#E1A700"/>
<stop offset="0.2072" stop-color="#E3AA04"/>
<stop offset="0.462" stop-color="#E9B110"/>
<stop offset="0.7405" stop-color="#FBBC05"/>
<stop offset="1" stop-color="#FFCD3B"/>
</linearGradient>
<linearGradient id="paint15_linear_116_214" x1="40.2251" y1="740.179" x2="1485.67" y2="740.179" gradientUnits="userSpaceOnUse">
<stop stop-color="#E1A700"/>
<stop offset="0.2072" stop-color="#E3AA04"/>
<stop offset="0.462" stop-color="#E9B110"/>
<stop offset="0.7405" stop-color="#FBBC05"/>
<stop offset="1" stop-color="#FFCD3B"/>
</linearGradient>
<linearGradient id="paint16_linear_116_214" x1="571.796" y1="-121.82" x2="892.921" y2="1181.52" gradientUnits="userSpaceOnUse">
<stop stop-color="#88A7DA"/>
<stop offset="0.00834" stop-color="#89A7D9"/>
<stop offset="0.4784" stop-color="#BBC6D9"/>
<stop offset="0.8218" stop-color="#F0DDA7"/>
<stop offset="1" stop-color="#FFE7A0"/>
</linearGradient>
<linearGradient id="paint17_linear_116_214" x1="64.7184" y1="569.635" x2="979.265" y2="569.635" gradientUnits="userSpaceOnUse">
<stop stop-color="#3380FF"/>
<stop offset="0.1585" stop-color="#3782FF"/>
<stop offset="0.3535" stop-color="#438AFF"/>
<stop offset="0.5676" stop-color="#498DFF"/>
<stop offset="0.7937" stop-color="#4285F4"/>
<stop offset="1" stop-color="#0060FF"/>
</linearGradient>
<linearGradient id="paint18_linear_116_214" x1="65.8932" y1="102.758" x2="254.414" y2="102.758" gradientUnits="userSpaceOnUse">
<stop stop-color="#3380FF"/>
<stop offset="0.1585" stop-color="#3782FF"/>
<stop offset="0.3535" stop-color="#438AFF"/>
<stop offset="0.5676" stop-color="#498DFF"/>
<stop offset="0.7937" stop-color="#4285F4"/>
<stop offset="1" stop-color="#0060FF"/>
</linearGradient>
<linearGradient id="paint19_linear_116_214" x1="79.8176" y1="469.716" x2="1504.26" y2="469.716" gradientUnits="userSpaceOnUse">
<stop stop-color="#88A7DA"/>
<stop offset="0.00834" stop-color="#89A7D9"/>
<stop offset="0.4784" stop-color="#BBC6D9"/>
<stop offset="0.8218" stop-color="#F0DDA7"/>
<stop offset="1" stop-color="#FFE7A0"/>
</linearGradient>
<linearGradient id="paint20_linear_116_214" x1="87.4316" y1="128.082" x2="304.446" y2="128.082" gradientUnits="userSpaceOnUse">
<stop stop-color="#88A7DA"/>
<stop offset="0.00834" stop-color="#89A7D9"/>
<stop offset="0.4784" stop-color="#BBC6D9"/>
<stop offset="0.8218" stop-color="#F0DDA7"/>
<stop offset="1" stop-color="#FFE7A0"/>
</linearGradient>
<linearGradient id="paint21_linear_116_214" x1="2222.09" y1="2744.48" x2="2222.09" y2="62.944" gradientUnits="userSpaceOnUse">
<stop stop-color="#A1C4FF"/>
<stop offset="0.4332" stop-color="white"/>
</linearGradient>
<linearGradient id="paint22_linear_116_214" x1="3013.22" y1="154.276" x2="3013.22" y2="154.362" gradientUnits="userSpaceOnUse">
<stop stop-color="#3380FF"/>
<stop offset="0.1585" stop-color="#3782FF"/>
<stop offset="0.3535" stop-color="#438AFF"/>
<stop offset="0.5676" stop-color="#498DFF"/>
<stop offset="0.7937" stop-color="#4285F4"/>
<stop offset="1" stop-color="#0060FF"/>
</linearGradient>
<linearGradient id="paint23_linear_116_214" x1="48.5992" y1="237.516" x2="4403.08" y2="237.516" gradientUnits="userSpaceOnUse">
<stop stop-color="#3380FF"/>
<stop offset="0.1585" stop-color="#3782FF"/>
<stop offset="0.3535" stop-color="#438AFF"/>
<stop offset="0.5676" stop-color="#498DFF"/>
<stop offset="0.7937" stop-color="#4285F4"/>
<stop offset="1" stop-color="#0060FF"/>
</linearGradient>
<linearGradient id="paint24_linear_116_214" x1="48.5991" y1="136.214" x2="4395.32" y2="136.214" gradientUnits="userSpaceOnUse">
<stop stop-color="#A1C4FF"/>
<stop offset="0.4332" stop-color="white"/>
</linearGradient>
<linearGradient id="paint25_linear_116_214" x1="20.1141" y1="242.872" x2="2907.8" y2="242.872" gradientUnits="userSpaceOnUse">
<stop stop-color="#A1C4FF"/>
<stop offset="0.7431" stop-color="white"/>
</linearGradient>
<linearGradient id="paint26_linear_116_214" x1="32.1228" y1="372.789" x2="565.286" y2="372.789" gradientUnits="userSpaceOnUse">
<stop stop-color="#3380FF"/>
<stop offset="0.1585" stop-color="#3782FF"/>
<stop offset="0.3535" stop-color="#438AFF"/>
<stop offset="0.5676" stop-color="#498DFF"/>
<stop offset="0.7937" stop-color="#4285F4"/>
<stop offset="1" stop-color="#0060FF"/>
</linearGradient>
<linearGradient id="paint27_linear_116_214" x1="179.244" y1="157.936" x2="-50.9095" y2="304.064" gradientUnits="userSpaceOnUse">
<stop stop-color="#A1C4FF"/>
<stop offset="0.4332" stop-color="white"/>
</linearGradient>
<linearGradient id="paint28_linear_116_214" x1="227.129" y1="2423.11" x2="152.036" y2="628.121" gradientUnits="userSpaceOnUse">
<stop stop-color="#A1C4FF"/>
<stop offset="0.4332" stop-color="white"/>
<stop offset="0.5794" stop-color="#FBFCFF"/>
<stop offset="0.7123" stop-color="#F0F6FF"/>
<stop offset="0.84" stop-color="#DEEAFF"/>
<stop offset="0.9637" stop-color="#C4DAFF"/>
<stop offset="1" stop-color="#BBD5FF"/>
</linearGradient>
<linearGradient id="paint29_linear_116_214" x1="378.322" y1="2441.39" x2="303.139" y2="646.225" gradientUnits="userSpaceOnUse">
<stop stop-color="#A1C4FF"/>
<stop offset="0.4332" stop-color="white"/>
<stop offset="0.5794" stop-color="#FBFCFF"/>
<stop offset="0.7123" stop-color="#F0F6FF"/>
<stop offset="0.84" stop-color="#DEEAFF"/>
<stop offset="0.9637" stop-color="#C4DAFF"/>
<stop offset="1" stop-color="#BBD5FF"/>
</linearGradient>
<linearGradient id="paint30_linear_116_214" x1="343.601" y1="173.166" x2="541.697" y2="1163.61" gradientUnits="userSpaceOnUse">
<stop stop-color="#13411F"/>
<stop offset="0.6346" stop-color="#1355C2"/>
<stop offset="0.6906" stop-color="#1859C5"/>
<stop offset="0.7595" stop-color="#2765CC"/>
<stop offset="0.8351" stop-color="#1F65D8"/>
<stop offset="0.9155" stop-color="#1263E9"/>
<stop offset="0.999" stop-color="#0060FF"/>
<stop offset="1" stop-color="#0060FF"/>
</linearGradient>
<linearGradient id="paint31_linear_116_214" x1="26.1462" y1="203.46" x2="298.666" y2="203.46" gradientUnits="userSpaceOnUse">
<stop stop-color="#A1C4FF"/>
<stop offset="0.4332" stop-color="white"/>
</linearGradient>
<linearGradient id="paint32_linear_116_214" x1="27.5222" y1="114.275" x2="375.098" y2="114.275" gradientUnits="userSpaceOnUse">
<stop stop-color="#88A7DA"/>
<stop offset="0.0506" stop-color="#93ACD5"/>
<stop offset="0.2502" stop-color="#BAC5D7"/>
<stop offset="0.4481" stop-color="#DBD1B3"/>
<stop offset="0.6414" stop-color="#EEDCA8"/>
<stop offset="0.8279" stop-color="#FBE4A2"/>
<stop offset="1" stop-color="#FFE7A0"/>
</linearGradient>
<linearGradient id="paint33_linear_116_214" x1="25.1368" y1="502.405" x2="867.95" y2="502.405" gradientUnits="userSpaceOnUse">
<stop stop-color="#88A7DA"/>
<stop offset="0.0506" stop-color="#93ACD5"/>
<stop offset="0.2502" stop-color="#BAC5D7"/>
<stop offset="0.4481" stop-color="#DBD1B3"/>
<stop offset="0.6414" stop-color="#EEDCA8"/>
<stop offset="0.8279" stop-color="#FBE4A2"/>
<stop offset="1" stop-color="#FFE7A0"/>
</linearGradient>
<linearGradient id="paint34_linear_116_214" x1="124.014" y1="106.849" x2="433.288" y2="701.596" gradientUnits="userSpaceOnUse">
<stop stop-color="#13411F"/>
<stop offset="0.6346" stop-color="#1355C2"/>
<stop offset="0.6906" stop-color="#1859C5"/>
<stop offset="0.7595" stop-color="#2765CC"/>
<stop offset="0.8351" stop-color="#1F65D8"/>
<stop offset="0.9155" stop-color="#1263E9"/>
<stop offset="0.999" stop-color="#0060FF"/>
<stop offset="1" stop-color="#0060FF"/>
</linearGradient>
<linearGradient id="paint35_linear_116_214" x1="100.826" y1="294.731" x2="2995.03" y2="294.731" gradientUnits="userSpaceOnUse">
<stop stop-color="#A1C4FF"/>
<stop offset="0.7431" stop-color="white"/>
</linearGradient>
<linearGradient id="paint36_linear_116_214" x1="634.898" y1="371.342" x2="103.173" y2="371.342" gradientUnits="userSpaceOnUse">
<stop stop-color="#3380FF"/>
<stop offset="0.1585" stop-color="#3782FF"/>
<stop offset="0.3535" stop-color="#438AFF"/>
<stop offset="0.5676" stop-color="#498DFF"/>
<stop offset="0.7937" stop-color="#4285F4"/>
<stop offset="1" stop-color="#0060FF"/>
</linearGradient>
<linearGradient id="paint37_linear_116_214" x1="608.802" y1="273.583" x2="266.975" y2="1982.86" gradientUnits="userSpaceOnUse">
<stop stop-color="#2264D1"/>
<stop offset="0.1652" stop-color="#2768D3"/>
<stop offset="0.3684" stop-color="#2E6FDA"/>
<stop offset="0.5916" stop-color="#216AE4"/>
<stop offset="0.8272" stop-color="#0F64F2"/>
<stop offset="1" stop-color="#0060FF"/>
</linearGradient>
<linearGradient id="paint38_linear_116_214" x1="456.319" y1="113.561" x2="109.69" y2="113.561" gradientUnits="userSpaceOnUse">
<stop stop-color="#88A7DA"/>
<stop offset="0.0506" stop-color="#93ACD5"/>
<stop offset="0.2502" stop-color="#BAC5D7"/>
<stop offset="0.4481" stop-color="#DBD1B3"/>
<stop offset="0.6414" stop-color="#EEDCA8"/>
<stop offset="0.8279" stop-color="#FBE4A2"/>
<stop offset="1" stop-color="#FFE7A0"/>
</linearGradient>
</defs>
</svg>
