<svg width="360" height="571" viewBox="0 0 360 571" fill="none" xmlns="http://www.w3.org/2000/svg">
<path d="M-115.656 1V44.7692M-115.656 1H-145V44.7692M-115.656 1H-86.3128M-115.656 44.7692L-115.656 88.5384M-115.656 44.7692H-145M-115.656 44.7692L-86.3128 44.7692M-115.656 88.5384V132.308M-115.656 88.5384H-145M-115.656 88.5384L-86.3128 88.5385M-115.656 132.308L-115.656 176.077M-115.656 132.308H-145M-115.656 132.308H-86.3128M-115.656 176.077V219.846M-115.656 176.077H-145M-115.656 176.077H-86.3128M-115.656 219.846V263.615M-115.656 219.846H-145M-115.656 219.846H-86.3128M-115.656 263.615L-115.656 307.385M-115.656 263.615H-145M-115.656 263.615H-86.3128M-115.656 307.385V351.154M-115.656 307.385H-145M-115.656 307.385H-86.3128M-115.656 351.154V394.923M-115.656 351.154H-145M-115.656 351.154H-86.3128M-115.656 394.923L-115.656 438.692M-115.656 394.923H-145M-115.656 394.923H-86.3128M-115.656 438.692V482.462M-115.656 438.692H-145M-115.656 438.692H-86.3128M-115.656 482.462L-115.656 526.231M-115.656 482.462H-145M-115.656 482.462H-86.3128M-115.656 526.231V570M-115.656 526.231H-145M-115.656 526.231H-86.3128M-115.656 570L-145 570V526.231M-115.656 570H-86.3128M-145 44.7692V88.5384M-145 88.5384V132.308M-145 132.308V176.077M-145 176.077V219.846M-145 219.846V263.615M-145 263.615V307.385M-145 307.385V351.154M-145 351.154V394.923M-145 394.923V438.692M-145 438.692V482.462M-145 482.462V526.231M-86.3128 1V44.7692M-86.3128 1H-56.9693M-86.3128 44.7692V88.5385M-86.3128 44.7692H-56.9693M-86.3128 88.5385L-86.3128 132.308M-86.3128 88.5385H-56.9693M-86.3128 132.308V176.077M-86.3128 132.308L-56.9693 132.308M-86.3128 176.077V219.846M-86.3128 176.077H-56.9693M-86.3128 219.846V263.615M-86.3128 219.846H-56.9693M-86.3128 263.615L-86.3128 307.385M-86.3128 263.615H-56.9693M-86.3128 307.385V351.154M-86.3128 307.385H-56.9693M-86.3128 351.154V394.923M-86.3128 351.154H-56.9693M-86.3128 394.923V438.692M-86.3128 394.923H-56.9693M-86.3128 438.692L-86.3128 482.462M-86.3128 438.692H-56.9693M-86.3128 482.462V526.231M-86.3128 482.462H-56.9693M-86.3128 526.231V570M-86.3128 526.231H-56.9693M-86.3128 570H-56.9693M-56.9693 1V44.7692M-56.9693 1H-27.6257M-56.9693 44.7692V88.5385M-56.9693 44.7692L-27.6257 44.7692M-56.9693 88.5385L-56.9693 132.308M-56.9693 88.5385H-27.6257M-56.9693 132.308V176.077M-56.9693 132.308H-27.6257M-56.9693 176.077V219.846M-56.9693 176.077L-27.6257 176.077M-56.9693 219.846V263.615M-56.9693 219.846L-27.6257 219.846M-56.9693 263.615L-56.9693 307.385M-56.9693 263.615H-27.6257M-56.9693 307.385V351.154M-56.9693 307.385H-27.6257M-56.9693 351.154V394.923M-56.9693 351.154H-27.6257M-56.9693 394.923V438.692M-56.9693 394.923H-27.6257M-56.9693 438.692L-56.9693 482.462M-56.9693 438.692H-27.6257M-56.9693 482.462V526.231M-56.9693 482.462H-27.6257M-56.9693 526.231V570M-56.9693 526.231H-27.6257M-56.9693 570H-27.6257M-27.6257 1V44.7692M-27.6257 1H1.71788M-27.6257 44.7692V88.5385M-27.6257 44.7692H1.71788M-27.6257 88.5385V132.308M-27.6257 88.5385L1.71788 88.5385M-27.6257 132.308V176.077M-27.6257 132.308H1.71788M-27.6257 176.077V219.846M-27.6257 176.077H1.71788M-27.6257 219.846V263.615M-27.6257 219.846H1.71788M-27.6257 263.615L-27.6257 307.385M-27.6257 263.615H1.71788M-27.6257 307.385V351.154M-27.6257 307.385H1.71787M-27.6257 351.154V394.923M-27.6257 351.154H1.71787M-27.6257 394.923V438.692M-27.6257 394.923H1.71787M-27.6257 438.692V482.462M-27.6257 438.692H1.71787M-27.6257 482.462V526.231M-27.6257 482.462H1.71787M-27.6257 526.231V570M-27.6257 526.231H1.71787M-27.6257 570H1.71787M60.405 1V44.7692M60.405 1H31.0614M60.405 1H89.7486M60.405 44.7692V88.5385M60.405 44.7692H31.0614M60.405 44.7692L89.7486 44.7692M60.405 88.5385V132.308M60.405 88.5385H31.0614M60.405 88.5385H89.7486M60.405 132.308V176.077M60.405 132.308L31.0614 132.308M60.405 132.308H89.7486M60.405 176.077V219.846M60.405 176.077H31.0614M60.405 176.077H89.7486M60.405 219.846V263.615M60.405 219.846H31.0614M60.405 219.846H89.7486M60.405 263.615L60.405 307.385M60.405 263.615L31.0614 263.615M60.405 263.615H89.7486M60.405 307.385V351.154M60.405 307.385L31.0614 307.385M60.405 307.385H89.7486M60.405 351.154V394.923M60.405 351.154L31.0614 351.154M60.405 351.154H89.7486M60.405 394.923V438.692M60.405 394.923H31.0614M60.405 394.923H89.7486M60.405 438.692V482.462M60.405 438.692L31.0614 438.692M60.405 438.692H89.7486M60.405 482.462V526.231M60.405 482.462L31.0614 482.462M60.405 482.462H89.7486M60.405 526.231V570M60.405 526.231L31.0614 526.231M60.405 526.231H89.7486M60.405 570H31.0614M60.405 570H89.7486M148.436 1V44.7693M148.436 1H119.092M148.436 1H177.779M148.436 44.7693V88.5385M148.436 44.7693L119.092 44.7692M148.436 44.7693H177.779M148.436 88.5385V132.308M148.436 88.5385H119.092M148.436 88.5385H177.779M148.436 132.308V176.077M148.436 132.308H119.092M148.436 132.308L177.779 132.308M148.436 176.077V219.846M148.436 176.077L119.092 176.077M148.436 176.077H177.779M148.436 219.846V263.615M148.436 219.846L119.092 219.846M148.436 219.846H177.779M148.436 263.615L148.436 307.385M148.436 263.615H119.092M148.436 263.615H177.779M148.436 307.385V351.154M148.436 307.385H119.092M148.436 307.385H177.779M148.436 351.154V394.923M148.436 351.154H119.092M148.436 351.154H177.779M148.436 394.923V438.692M148.436 394.923H119.092M148.436 394.923H177.779M148.436 438.692V482.462M148.436 438.692H119.092M148.436 438.692H177.779M148.436 482.462V526.231M148.436 482.462H119.092M148.436 482.462H177.779M148.436 526.231V570M148.436 526.231H119.092M148.436 526.231H177.779M148.436 570H119.092M148.436 570H177.779M1.71788 1V44.7692M1.71788 1H31.0614M1.71788 44.7692V88.5385M1.71788 44.7692L31.0614 44.7692M1.71788 88.5385V132.308M1.71788 88.5385H31.0614M1.71788 132.308V176.077M1.71788 132.308H31.0614M1.71788 176.077V219.846M1.71788 176.077H31.0614M1.71788 219.846V263.615M1.71788 219.846H31.0614M1.71788 263.615L1.71787 307.385M1.71788 263.615H31.0614M1.71787 307.385V351.154M1.71787 307.385H31.0614M1.71787 351.154V394.923M1.71787 351.154H31.0614M1.71787 394.923V438.692M1.71787 394.923H31.0614M1.71787 438.692V482.462M1.71787 438.692H31.0614M1.71787 482.462V526.231M1.71787 482.462H31.0614M1.71787 526.231V570M1.71787 526.231H31.0614M1.71787 570H31.0614M89.7486 1V44.7692M89.7486 1H119.092M89.7486 44.7692V88.5385M89.7486 44.7692H119.092M89.7486 88.5385V132.308M89.7486 88.5385L119.092 88.5385M89.7486 132.308V176.077M89.7486 132.308H119.092M89.7486 176.077V219.846M89.7486 176.077H119.092M89.7486 219.846V263.615M89.7486 219.846H119.092M89.7486 263.615L89.7486 307.385M89.7486 263.615H119.092M89.7486 307.385V351.154M89.7486 307.385H119.092M89.7486 351.154V394.923M89.7486 351.154H119.092M89.7486 394.923V438.692M89.7486 394.923H119.092M89.7486 438.692V482.462M89.7486 438.692H119.092M89.7486 482.462V526.231M89.7486 482.462H119.092M89.7486 526.231V570M89.7486 526.231H119.092M89.7486 570H119.092M177.779 1V44.7693M177.779 1H207.123M177.779 44.7693V88.5385M177.779 44.7693L207.123 44.7693M177.779 88.5385V132.308M177.779 88.5385L207.123 88.5385M177.779 132.308V176.077M177.779 132.308H207.123M177.779 176.077V219.846M177.779 176.077H207.123M177.779 219.846V263.615M177.779 219.846H207.123M177.779 263.615V307.385M177.779 263.615H207.123M177.779 307.385V351.154M177.779 307.385H207.123M177.779 351.154V394.923M177.779 351.154H207.123M177.779 394.923V438.692M177.779 394.923H207.123M177.779 438.692V482.462M177.779 438.692H207.123M177.779 482.462V526.231M177.779 482.462H207.123M177.779 526.231V570M177.779 526.231H207.123M177.779 570H207.123M31.0614 1V44.7692M31.0614 44.7692V88.5385M31.0614 88.5385V132.308M31.0614 132.308L31.0614 176.077M31.0614 176.077V219.846M31.0614 219.846V263.615M31.0614 263.615V307.385M31.0614 307.385V351.154M31.0614 351.154V394.923M31.0614 394.923L31.0614 438.692M31.0614 438.692V482.462M31.0614 482.462V526.231M31.0614 526.231V570M119.092 1V44.7692M119.092 44.7692V88.5385M119.092 88.5385V132.308M119.092 132.308V176.077M119.092 176.077V219.846M119.092 219.846V263.615M119.092 263.615V307.385M119.092 307.385V351.154M119.092 351.154V394.923M119.092 394.923V438.692M119.092 438.692V482.462M119.092 482.462V526.231M119.092 526.231V570M207.123 1V44.7693M207.123 1H236.467V570H207.123M207.123 44.7693V88.5385M207.123 44.7693H236.466M207.123 88.5385V132.308M207.123 88.5385H236.466M207.123 132.308V176.077M207.123 132.308H236.466M207.123 176.077V219.846M207.123 176.077H236.466M207.123 219.846V263.615M207.123 219.846H236.466M207.123 263.615V307.385M207.123 263.615H236.466M207.123 307.385V351.154M207.123 307.385H236.466M207.123 351.154V394.923M207.123 351.154H236.466M207.123 394.923V438.692M207.123 394.923H236.466M207.123 438.692V482.462M207.123 438.692H236.466M207.123 482.462V526.231M207.123 482.462H236.466M207.123 526.231V570M207.123 526.231H236.466M89.8771 1V44.7692M89.8771 1H60.5335V44.7692M89.8771 1H119.221M89.8771 44.7692V88.5384M89.8771 44.7692H60.5335M89.8771 44.7692L119.221 44.7692M89.8771 88.5384V132.308M89.8771 88.5384H60.5335M89.8771 88.5384L119.221 88.5385M89.8771 132.308V176.077M89.8771 132.308H60.5335M89.8771 132.308H119.221M89.8771 176.077V219.846M89.8771 176.077H60.5335M89.8771 176.077H119.221M89.8771 219.846V263.615M89.8771 219.846H60.5335M89.8771 219.846H119.221M89.8771 263.615V307.385M89.8771 263.615H60.5335M89.8771 263.615H119.221M89.8771 307.385V351.154M89.8771 307.385H60.5335M89.8771 307.385H119.221M89.8771 351.154V394.923M89.8771 351.154H60.5335M89.8771 351.154H119.221M89.8771 394.923V438.692M89.8771 394.923H60.5335M89.8771 394.923H119.221M89.8771 438.692V482.462M89.8771 438.692H60.5335M89.8771 438.692H119.221M89.8771 482.462L89.8771 526.231M89.8771 482.462H60.5335M89.8771 482.462H119.221M89.8771 526.231V570M89.8771 526.231H60.5335M89.8771 526.231H119.221M89.8771 570L60.5335 570V526.231M89.8771 570H119.221M60.5335 44.7692V88.5384M60.5335 88.5384V132.308M60.5335 132.308V176.077M60.5335 176.077V219.846M60.5335 219.846V263.615M60.5335 263.615V307.385M60.5335 307.385V351.154M60.5335 351.154V394.923M60.5335 394.923V438.692M60.5335 438.692V482.462M60.5335 482.462V526.231M119.221 1V44.7692M119.221 1H148.564M119.221 44.7692V88.5385M119.221 44.7692H148.564M119.221 88.5385V132.308M119.221 88.5385H148.564M119.221 132.308V176.077M119.221 132.308L148.564 132.308M119.221 176.077V219.846M119.221 176.077H148.564M119.221 219.846V263.615M119.221 219.846H148.564M119.221 263.615V307.385M119.221 263.615H148.564M119.221 307.385V351.154M119.221 307.385H148.564M119.221 351.154V394.923M119.221 351.154H148.564M119.221 394.923V438.692M119.221 394.923H148.564M119.221 438.692V482.462M119.221 438.692H148.564M119.221 482.462V526.231M119.221 482.462H148.564M119.221 526.231V570M119.221 526.231H148.564M119.221 570H148.564M148.564 1V44.7692M148.564 1H177.908M148.564 44.7692V88.5385M148.564 44.7692L177.908 44.7692M148.564 88.5385L148.564 132.308M148.564 88.5385H177.908M148.564 132.308V176.077M148.564 132.308H177.908M148.564 176.077V219.846M148.564 176.077L177.908 176.077M148.564 219.846V263.615M148.564 219.846L177.908 219.846M148.564 263.615V307.385M148.564 263.615H177.908M148.564 307.385V351.154M148.564 307.385H177.908M148.564 351.154V394.923M148.564 351.154H177.908M148.564 394.923V438.692M148.564 394.923H177.908M148.564 438.692V482.462M148.564 438.692H177.908M148.564 482.462V526.231M148.564 482.462H177.908M148.564 526.231V570M148.564 526.231H177.908M148.564 570H177.908M177.908 1V44.7692M177.908 1H207.251M177.908 44.7692V88.5385M177.908 44.7692H207.251M177.908 88.5385V132.308M177.908 88.5385L207.251 88.5385M177.908 132.308V176.077M177.908 132.308H207.251M177.908 176.077V219.846M177.908 176.077H207.251M177.908 219.846V263.615M177.908 219.846H207.251M177.908 263.615L177.908 307.385M177.908 263.615H207.251M177.908 307.385V351.154M177.908 307.385H207.251M177.908 351.154V394.923M177.908 351.154H207.251M177.908 394.923V438.692M177.908 394.923H207.251M177.908 438.692V482.462M177.908 438.692H207.251M177.908 482.462V526.231M177.908 482.462H207.251M177.908 526.231V570M177.908 526.231H207.251M177.908 570H207.251M265.939 1V44.7692M265.939 1H236.595M265.939 1H295.282M265.939 44.7692V88.5385M265.939 44.7692H236.595M265.939 44.7692L295.282 44.7692M265.939 88.5385V132.308M265.939 88.5385H236.595M265.939 88.5385H295.282M265.939 132.308V176.077M265.939 132.308L236.595 132.308M265.939 132.308H295.282M265.939 176.077V219.846M265.939 176.077H236.595M265.939 176.077H295.282M265.939 219.846V263.615M265.939 219.846H236.595M265.939 219.846H295.282M265.939 263.615V307.385M265.939 263.615L236.595 263.615M265.939 263.615H295.282M265.939 307.385V351.154M265.939 307.385L236.595 307.385M265.939 307.385H295.282M265.939 351.154V394.923M265.939 351.154L236.595 351.154M265.939 351.154H295.282M265.939 394.923V438.692M265.939 394.923H236.595M265.939 394.923H295.282M265.939 438.692V482.462M265.939 438.692L236.595 438.692M265.939 438.692H295.282M265.939 482.462V526.231M265.939 482.462L236.595 482.462M265.939 482.462H295.282M265.939 526.231V570M265.939 526.231L236.595 526.231M265.939 526.231H295.282M265.939 570H236.595M265.939 570H295.282M353.969 1V44.7693M353.969 1H324.626M353.969 1H383.313M353.969 44.7693V88.5385M353.969 44.7693L324.626 44.7692M353.969 44.7693H383.313M353.969 88.5385V132.308M353.969 88.5385H324.626M353.969 88.5385H383.313M353.969 132.308V176.077M353.969 132.308H324.626M353.969 132.308L383.313 132.308M353.969 176.077V219.846M353.969 176.077L324.626 176.077M353.969 176.077H383.313M353.969 219.846V263.615M353.969 219.846L324.626 219.846M353.969 219.846H383.313M353.969 263.615L353.969 307.385M353.969 263.615H324.626M353.969 263.615H383.313M353.969 307.385V351.154M353.969 307.385H324.626M353.969 307.385H383.313M353.969 351.154V394.923M353.969 351.154H324.626M353.969 351.154H383.313M353.969 394.923V438.692M353.969 394.923H324.626M353.969 394.923H383.313M353.969 438.692V482.462M353.969 438.692H324.626M353.969 438.692H383.313M353.969 482.462V526.231M353.969 482.462H324.626M353.969 482.462H383.313M353.969 526.231V570M353.969 526.231H324.626M353.969 526.231H383.313M353.969 570H324.626M353.969 570H383.313M207.251 1V44.7692M207.251 1H236.595M207.251 44.7692V88.5385M207.251 44.7692L236.595 44.7692M207.251 88.5385V132.308M207.251 88.5385H236.595M207.251 132.308V176.077M207.251 132.308H236.595M207.251 176.077V219.846M207.251 176.077H236.595M207.251 219.846V263.615M207.251 219.846H236.595M207.251 263.615V307.385M207.251 263.615H236.595M207.251 307.385V351.154M207.251 307.385H236.595M207.251 351.154V394.923M207.251 351.154H236.595M207.251 394.923V438.692M207.251 394.923H236.595M207.251 438.692V482.462M207.251 438.692H236.595M207.251 482.462V526.231M207.251 482.462H236.595M207.251 526.231V570M207.251 526.231H236.595M207.251 570H236.595M295.282 1V44.7692M295.282 1H324.626M295.282 44.7692V88.5385M295.282 44.7692H324.626M295.282 88.5385V132.308M295.282 88.5385L324.626 88.5385M295.282 132.308V176.077M295.282 132.308H324.626M295.282 176.077V219.846M295.282 176.077H324.626M295.282 219.846V263.615M295.282 219.846H324.626M295.282 263.615V307.385M295.282 263.615H324.626M295.282 307.385V351.154M295.282 307.385H324.626M295.282 351.154V394.923M295.282 351.154H324.626M295.282 394.923V438.692M295.282 394.923H324.626M295.282 438.692V482.462M295.282 438.692H324.626M295.282 482.462V526.231M295.282 482.462H324.626M295.282 526.231V570M295.282 526.231H324.626M295.282 570H324.626M383.313 1V44.7693M383.313 1H412.656M383.313 44.7693V88.5385M383.313 44.7693L412.656 44.7693M383.313 88.5385V132.308M383.313 88.5385L412.656 88.5385M383.313 132.308V176.077M383.313 132.308H412.656M383.313 176.077V219.846M383.313 176.077H412.656M383.313 219.846V263.615M383.313 219.846H412.656M383.313 263.615V307.385M383.313 263.615H412.656M383.313 307.385V351.154M383.313 307.385H412.656M383.313 351.154V394.923M383.313 351.154H412.656M383.313 394.923V438.692M383.313 394.923H412.656M383.313 438.692V482.462M383.313 438.692H412.656M383.313 482.462V526.231M383.313 482.462H412.656M383.313 526.231V570M383.313 526.231H412.656M383.313 570H412.656M236.595 1V44.7692M236.595 44.7692V88.5385M236.595 88.5385V132.308M236.595 132.308V176.077M236.595 176.077V219.846M236.595 219.846V263.615M236.595 263.615V307.385M236.595 307.385V351.154M236.595 351.154V394.923M236.595 394.923L236.595 438.692M236.595 438.692V482.462M236.595 482.462V526.231M236.595 526.231V570M324.626 1V44.7692M324.626 44.7692V88.5385M324.626 88.5385V132.308M324.626 132.308V176.077M324.626 176.077V219.846M324.626 219.846V263.615M324.626 263.615V307.385M324.626 307.385V351.154M324.626 351.154V394.923M324.626 394.923V438.692M324.626 438.692V482.462M324.626 482.462V526.231M324.626 526.231V570M412.656 1V44.7693M412.656 1H442V570H412.656M412.656 44.7693V88.5385M412.656 44.7693H442M412.656 88.5385V132.308M412.656 88.5385H442M412.656 132.308V176.077M412.656 132.308H442M412.656 176.077V219.846M412.656 176.077H442M412.656 219.846V263.615M412.656 219.846H442M412.656 263.615V307.385M412.656 263.615H442M412.656 307.385V351.154M412.656 307.385H442M412.656 351.154V394.923M412.656 351.154H442M412.656 394.923V438.692M412.656 394.923H442M412.656 438.692V482.462M412.656 438.692H442M412.656 482.462V526.231M412.656 482.462H442M412.656 526.231V570M412.656 526.231H442" stroke="url(#paint0_linear_116_173)"/>
<defs>
<linearGradient id="paint0_linear_116_173" x1="-145" y1="1" x2="546.264" y2="293.858" gradientUnits="userSpaceOnUse">
<stop stop-color="#2563EF"/>
<stop offset="1" stop-color="white" stop-opacity="0"/>
</linearGradient>
</defs>
</svg>
